<?xml version="1.0" encoding="utf-8"?>
<!-- Generator: Adobe Illustrator 17.0.0, SVG Export Plug-In . SVG Version: 6.00 Build 0)  -->
<!DOCTYPE svg PUBLIC "-//W3C//DTD SVG 1.1//EN" "http://www.w3.org/Graphics/SVG/1.1/DTD/svg11.dtd">
<svg version="1.1" id="Слой_1" xmlns="http://www.w3.org/2000/svg" xmlns:xlink="http://www.w3.org/1999/xlink" x="0px" y="0px"
	 width="166.616px" height="49.094px" viewBox="0 0 166.616 49.094" enable-background="new 0 0 166.616 49.094"
	 xml:space="preserve">
<path fill="#424242" d="M16.462,28.717l0.012-0.035c14.941-0.37,17.052-13.986,17.05-14.143c0-12.796-10.231-14.057-15.306-14.463V0
	l-1.79,0l-0.264,0l-4.619,0.001l-6.687,0H3.846L3.844,22.607H0.003L0,28.714h3.846v1.936l-3.844,0.003l0,6.114l3.84,0.001v9.051
	h7.705v-9.051l16.456-0.001v-6.114l-16.455,0.003v-1.936L16.462,28.717z M16.604,6.761c4.838,0.097,7.205,2.58,7.207,7.604
	c0,3.74-1.91,8.078-7.187,8.247H11.55V6.761L16.604,6.761z"/>
<g>
	<path fill="#424242" d="M40.889,20.348V4.6h9.657v2.664h-7.058v3.599h3.695c1.396,0,2.492,0.435,3.287,1.305
		s1.192,2.021,1.192,3.454c0,1.246-0.338,2.346-1.016,3.298c-0.676,0.953-1.831,1.429-3.464,1.429H40.889z M43.489,13.527v4.157
		h2.745c0.714,0,1.23-0.048,1.549-0.145c0.317-0.097,0.597-0.32,0.836-0.671c0.239-0.351,0.359-0.759,0.359-1.225
		c0-1.411-0.879-2.116-2.638-2.116H43.489z"/>
	<path fill="#424242" d="M65.467,20.348h-2.826l-1.131-3.566h-5.17l-1.067,3.566h-2.771L57.53,4.6h2.762L65.467,20.348z
		 M60.67,14.118l-1.782-5.844l-1.75,5.844H60.67z"/>
	<path fill="#424242" d="M66.842,20.348V4.6h2.6v6.198h5.124V4.6h2.6v15.748h-2.6v-6.886h-5.124v6.886H66.842z"/>
	<path fill="#424242" d="M79.905,20.348V4.6h2.6v6.703c0.58-0.071,0.981-0.267,1.203-0.585c0.222-0.318,0.516-1.086,0.881-2.304
		c0.365-1.217,0.745-2.104,1.139-2.659C86.121,5.2,86.54,4.862,86.984,4.74c0.444-0.122,1.207-0.208,2.288-0.258v2.363h-0.364
		c-0.736,0-1.235,0.17-1.496,0.511c-0.261,0.341-0.53,0.998-0.807,1.971c-0.277,0.974-0.515,1.621-0.711,1.942
		c-0.197,0.321-0.515,0.638-0.951,0.952c0.573,0.237,1.04,0.621,1.402,1.153c0.361,0.531,0.796,1.42,1.305,2.666l1.762,4.308h-3.061
		l-1.559-4.071c-0.394-1.038-0.732-1.763-1.016-2.175c-0.282-0.412-0.707-0.625-1.272-0.639v6.886H79.905z"/>
	<path fill="#424242" d="M90.346,12.571c0-1.876,0.277-3.421,0.833-4.635c0.555-1.214,1.279-2.118,2.175-2.712
		c0.896-0.594,1.98-0.892,3.255-0.892c1.848,0,3.354,0.706,4.518,2.116c1.163,1.411,1.745,3.42,1.745,6.026
		c0,2.636-0.616,4.694-1.848,6.177c-1.081,1.311-2.55,1.966-4.404,1.966c-1.869,0-3.345-0.648-4.426-1.944
		C90.962,17.19,90.346,15.156,90.346,12.571z M93.032,12.464c0,1.812,0.345,3.171,1.033,4.077c0.688,0.906,1.542,1.359,2.56,1.359
		c1.026,0,1.876-0.449,2.55-1.348c0.675-0.898,1.012-2.279,1.012-4.141c0-1.826-0.328-3.176-0.984-4.05
		c-0.656-0.874-1.516-1.311-2.577-1.311c-1.061,0-1.925,0.44-2.592,1.321S93.032,10.616,93.032,12.464z"/>
	<path fill="#424242" d="M104.913,4.6h5.172c1.413,0,2.405,0.129,2.979,0.387c0.573,0.258,1.058,0.713,1.451,1.364
		c0.395,0.652,0.592,1.39,0.592,2.213c0,0.759-0.169,1.445-0.507,2.057s-0.777,1.065-1.316,1.359
		c0.766,0.272,1.364,0.738,1.797,1.396c0.433,0.659,0.649,1.461,0.649,2.406c0,1.146-0.275,2.115-0.827,2.906
		c-0.552,0.792-1.203,1.28-1.955,1.466c-0.522,0.129-1.736,0.193-3.642,0.193h-4.394V4.6z M107.512,7.221v3.642h1.719
		c1.031,0,1.669-0.018,1.912-0.054c0.444-0.071,0.791-0.259,1.042-0.564c0.251-0.304,0.376-0.718,0.376-1.241
		c0-0.465-0.102-0.843-0.307-1.133c-0.203-0.29-0.451-0.471-0.74-0.542c-0.291-0.071-1.123-0.107-2.498-0.107H107.512z
		 M107.512,13.484v4.2h2.422c1.062,0,1.743-0.055,2.045-0.166c0.301-0.111,0.554-0.329,0.759-0.654
		c0.204-0.325,0.307-0.737,0.307-1.237c0-0.515-0.109-0.938-0.328-1.27c-0.219-0.333-0.51-0.561-0.872-0.686
		s-1.104-0.188-2.223-0.188H107.512z"/>
	<path fill="#424242" d="M126.204,14.558l2.524,0.978c-0.394,1.762-1.049,3.049-1.966,3.862c-0.917,0.813-2.045,1.219-3.384,1.219
		c-1.683,0-3.047-0.648-4.093-1.944c-1.203-1.497-1.805-3.516-1.805-6.059c0-2.686,0.605-4.787,1.817-6.306
		c1.054-1.317,2.47-1.977,4.247-1.977c1.448,0,2.659,0.494,3.634,1.482c0.695,0.702,1.205,1.744,1.527,3.126l-2.578,0.752
		c-0.165-0.852-0.493-1.505-0.984-1.96c-0.492-0.455-1.071-0.682-1.738-0.682c-0.954,0-1.732,0.416-2.335,1.246
		c-0.603,0.831-0.904,2.202-0.904,4.114c0,1.984,0.294,3.395,0.881,4.232s1.35,1.257,2.288,1.257c0.688,0,1.282-0.267,1.783-0.8
		C125.62,16.566,125.982,15.718,126.204,14.558z"/>
	<path fill="#424242" d="M131.005,20.348V4.6h2.6v6.703c0.58-0.071,0.981-0.267,1.203-0.585c0.222-0.318,0.516-1.086,0.881-2.304
		c0.365-1.217,0.745-2.104,1.139-2.659c0.394-0.555,0.812-0.893,1.257-1.015c0.444-0.122,1.207-0.208,2.288-0.258v2.363h-0.364
		c-0.736,0-1.235,0.17-1.496,0.511c-0.261,0.341-0.53,0.998-0.807,1.971c-0.277,0.974-0.515,1.621-0.711,1.942
		c-0.197,0.321-0.515,0.638-0.951,0.952c0.573,0.237,1.04,0.621,1.402,1.153c0.361,0.531,0.796,1.42,1.305,2.666l1.762,4.308h-3.061
		l-1.559-4.071c-0.394-1.038-0.732-1.763-1.016-2.175c-0.282-0.412-0.707-0.625-1.272-0.639v6.886H131.005z"/>
	<path fill="#424242" d="M141.984,20.348V4.6h2.481v10.495L149.697,4.6h2.61v15.748h-2.481v-10.27l-5.225,10.27H141.984z"/>
	<path fill="#424242" d="M154.96,20.348V4.6h2.481v10.495L162.673,4.6h2.61v15.748h-2.481v-10.27l-5.225,10.27H154.96z
		 M161.707,0.422h1.203c-0.064,1.003-0.349,1.774-0.854,2.315c-0.504,0.541-1.133,0.811-1.885,0.811s-1.381-0.27-1.885-0.811
		c-0.506-0.541-0.794-1.312-0.865-2.315h1.203c0.093,1.031,0.608,1.547,1.547,1.547S161.621,1.453,161.707,0.422z"/>
	<path fill="#424242" d="M43.467,42.348h-2.6V26.6H51.18v15.748h-2.6V29.264h-5.113V42.348z"/>
	<path fill="#424242" d="M53.866,42.348V26.6h9.582v2.664h-6.982v3.491h6.488v2.653h-6.488v4.275h7.219v2.664H53.866z"/>
	<path fill="#424242" d="M65.886,42.348V26.6h4.189c1.562,0,2.582,0.075,3.062,0.226c0.767,0.244,1.398,0.763,1.896,1.558
		c0.498,0.795,0.747,1.819,0.747,3.072c0,1.139-0.215,2.093-0.645,2.863c-0.43,0.77-0.967,1.311-1.611,1.621
		c-0.645,0.312-1.755,0.468-3.33,0.468h-1.708v5.94H65.886z M68.486,29.264v4.479h1.442c0.97,0,1.628-0.068,1.977-0.205
		c0.348-0.136,0.633-0.382,0.855-0.737s0.334-0.791,0.334-1.309c0-0.523-0.115-0.965-0.345-1.324
		c-0.229-0.358-0.513-0.6-0.851-0.721c-0.337-0.123-1.052-0.184-2.143-0.184H68.486z"/>
	<path fill="#424242" d="M77.928,42.348V26.6h9.582v2.664h-6.982v3.491h6.488v2.653h-6.488v4.275h7.219v2.664H77.928z"/>
	<path fill="#424242" d="M89.949,26.6h5.172c1.413,0,2.405,0.129,2.979,0.387c0.573,0.258,1.058,0.713,1.451,1.364
		c0.395,0.651,0.592,1.39,0.592,2.213c0,0.759-0.169,1.444-0.507,2.058c-0.338,0.611-0.777,1.064-1.316,1.358
		c0.766,0.272,1.364,0.737,1.797,1.396s0.649,1.461,0.649,2.406c0,1.146-0.275,2.114-0.827,2.905
		c-0.552,0.792-1.203,1.28-1.955,1.467c-0.522,0.129-1.736,0.193-3.642,0.193h-4.394V26.6z M92.548,29.221v3.642h1.719
		c1.031,0,1.669-0.018,1.912-0.054c0.444-0.071,0.791-0.26,1.042-0.564c0.251-0.304,0.376-0.717,0.376-1.24
		c0-0.465-0.102-0.844-0.307-1.133c-0.203-0.291-0.451-0.471-0.74-0.543c-0.291-0.071-1.123-0.107-2.498-0.107H92.548z
		 M92.548,35.484v4.2h2.422c1.062,0,1.743-0.056,2.045-0.166c0.301-0.11,0.554-0.329,0.759-0.653
		c0.204-0.325,0.307-0.737,0.307-1.238c0-0.514-0.109-0.938-0.328-1.27s-0.51-0.561-0.872-0.686s-1.104-0.188-2.223-0.188H92.548z"
		/>
	<path fill="#424242" d="M102.442,34.571c0-1.876,0.277-3.422,0.833-4.635c0.555-1.215,1.279-2.118,2.175-2.713
		c0.896-0.594,1.98-0.892,3.255-0.892c1.848,0,3.354,0.706,4.518,2.116c1.163,1.411,1.745,3.42,1.745,6.026
		c0,2.636-0.616,4.694-1.848,6.177c-1.081,1.311-2.55,1.966-4.404,1.966c-1.869,0-3.345-0.648-4.426-1.944
		C103.058,39.19,102.442,37.156,102.442,34.571z M105.127,34.464c0,1.812,0.345,3.171,1.033,4.076
		c0.688,0.906,1.542,1.359,2.56,1.359c1.026,0,1.876-0.449,2.55-1.348c0.675-0.899,1.012-2.279,1.012-4.142
		c0-1.826-0.328-3.176-0.984-4.05c-0.656-0.873-1.516-1.311-2.577-1.311c-1.061,0-1.925,0.44-2.592,1.321
		S105.127,32.616,105.127,34.464z"/>
	<path fill="#424242" d="M126.966,39.684h1.117v6.091h-2.138v-3.427h-8.153v3.427h-2.138v-6.091h1.074
		c0.423-1.103,0.748-2.435,0.978-3.996s0.344-3.889,0.344-6.982V26.6h8.916V39.684z M124.367,29.264h-3.846
		c0,4.643-0.354,8.116-1.063,10.42h4.909V29.264z"/>
</g>
</svg>
