<?xml version="1.0" encoding="utf-8"?>
<!-- Generator: Adobe Illustrator 17.0.0, SVG Export Plug-In . SVG Version: 6.00 Build 0)  -->
<!DOCTYPE svg PUBLIC "-//W3C//DTD SVG 1.1//EN" "http://www.w3.org/Graphics/SVG/1.1/DTD/svg11.dtd">
<svg version="1.1" id="Слой_1" xmlns="http://www.w3.org/2000/svg" xmlns:xlink="http://www.w3.org/1999/xlink" x="0px" y="0px"
	 width="68.059px" height="13.433px" viewBox="0 0 68.059 13.433" enable-background="new 0 0 68.059 13.433" xml:space="preserve">
<g>
	<path fill="#979797" d="M1.955,10.712l-0.209,1.292H0l0.39-2.878h1.121l3.357-5.852h1.205l1.802,5.852h1.134L8.62,12.004H6.836
		l0.178-1.292H1.955z M5.927,9.126L5.206,5.612H5.089l-1.67,3.514H5.927z"/>
	<path fill="#979797" d="M10.91,10.712H9.912l1.016-7.438h1.827l-0.571,4.331l4.143-4.331h0.971l-0.975,7.438h-1.858l0.582-4.259
		L10.91,10.712z"/>
	<path fill="#979797" d="M19.193,3.849c0.666-0.51,1.393-0.766,2.182-0.766c0.702,0,1.264,0.168,1.686,0.506
		c0.421,0.337,0.632,0.793,0.632,1.367c0,0.351-0.081,0.663-0.243,0.937s-0.5,0.529-1.015,0.766
		c0.738,0.456,1.107,1.071,1.107,1.846c0,0.707-0.25,1.278-0.749,1.716c-0.5,0.438-1.244,0.656-2.233,0.656
		c-1.158,0-2.031-0.285-2.619-0.854l1.208-1.299c0.393,0.328,0.799,0.492,1.219,0.492c0.329,0,0.598-0.084,0.808-0.253
		s0.315-0.351,0.315-0.547c0-0.182-0.076-0.37-0.229-0.564s-0.368-0.291-0.646-0.291h-0.485l0.185-1.333h0.369
		c0.319,0,0.572-0.081,0.759-0.243s0.28-0.359,0.28-0.591c0-0.214-0.07-0.385-0.209-0.513s-0.321-0.191-0.544-0.191
		c-0.319,0-0.726,0.148-1.219,0.444L19.193,3.849z"/>
	<path fill="#979797" d="M31.388,3.274h1.828l-1.037,7.438h-1.807l0.109-0.799c-0.397,0.369-0.768,0.626-1.112,0.771
		c-0.345,0.146-0.731,0.219-1.16,0.219c-0.986,0-1.77-0.362-2.351-1.087s-0.873-1.568-0.873-2.529c0-0.734,0.186-1.432,0.559-2.095
		c0.372-0.663,0.872-1.18,1.499-1.552c0.627-0.372,1.284-0.557,1.969-0.557c0.459,0,0.883,0.105,1.272,0.316
		c0.388,0.211,0.708,0.519,0.961,0.922L31.388,3.274z M28.647,9.276c0.45,0,0.842-0.1,1.176-0.3c0.335-0.2,0.616-0.514,0.843-0.941
		c0.227-0.428,0.341-0.865,0.341-1.311c0-0.589-0.171-1.063-0.513-1.421c-0.342-0.359-0.792-0.538-1.352-0.538
		c-0.651,0-1.204,0.239-1.658,0.718c-0.454,0.479-0.681,1.096-0.681,1.853c0,0.583,0.172,1.053,0.516,1.408
		C27.664,9.099,28.106,9.276,28.647,9.276z"/>
	<path fill="#979797" d="M35.15,10.712h-0.998l1.016-7.438h1.827l-0.571,4.331l4.143-4.331h0.971l-0.975,7.438h-1.858l0.582-4.259
		L35.15,10.712z M36.046,0h1.511c0.078,0.182,0.194,0.312,0.35,0.39c0.229,0.114,0.512,0.171,0.85,0.171
		c0.311,0,0.579-0.047,0.805-0.14S39.969,0.187,40.106,0h1.511c-0.178,0.588-0.528,1.054-1.051,1.398s-1.188,0.516-1.995,0.516
		c-0.844,0-1.477-0.177-1.899-0.53C36.25,1.031,36.042,0.57,36.046,0z"/>
	<path fill="#979797" d="M44.42,10.712h-1.867l1.016-7.438h1.867l-0.366,2.68h2.672l0.366-2.68h1.874l-1.016,7.438h-1.874
		l0.421-3.083h-2.673L44.42,10.712z"/>
	<path fill="#979797" d="M56.526,8.535l1.606,0.833c-0.36,0.474-0.837,0.848-1.432,1.123c-0.595,0.275-1.254,0.413-1.979,0.413
		c-1.135,0-2.029-0.319-2.683-0.957s-0.981-1.486-0.981-2.543c0-1.208,0.409-2.229,1.227-3.066s1.806-1.254,2.963-1.254
		c0.697,0,1.318,0.153,1.863,0.458s0.974,0.75,1.289,1.333s0.472,1.217,0.472,1.9c0,0.214-0.023,0.465-0.068,0.752h-5.934
		c0.018,0.517,0.188,0.929,0.509,1.235s0.765,0.46,1.33,0.46C55.392,9.222,55.998,8.993,56.526,8.535z M56.991,6.187
		c-0.137-0.456-0.365-0.801-0.684-1.036s-0.704-0.352-1.155-0.352c-0.447,0-0.85,0.121-1.21,0.362s-0.633,0.583-0.82,1.025H56.991z"
		/>
	<path fill="#979797" d="M61.367,13.433h-1.821l1.388-10.158h1.794l-0.108,0.807c0.393-0.376,0.76-0.637,1.101-0.781
		c0.341-0.145,0.724-0.217,1.148-0.217c0.98,0,1.757,0.362,2.33,1.087c0.574,0.725,0.86,1.565,0.86,2.522
		c0,0.734-0.184,1.433-0.553,2.099s-0.863,1.184-1.484,1.555c-0.621,0.372-1.268,0.557-1.941,0.557
		c-0.455,0-0.875-0.104-1.262-0.314s-0.703-0.514-0.948-0.915L61.367,13.433z M64.425,4.703c-0.438,0-0.823,0.102-1.155,0.305
		c-0.332,0.203-0.61,0.519-0.833,0.948c-0.224,0.429-0.335,0.868-0.335,1.315c0,0.586,0.168,1.058,0.505,1.415
		c0.336,0.357,0.78,0.536,1.331,0.536c0.641,0,1.185-0.239,1.632-0.718c0.447-0.479,0.67-1.096,0.67-1.853
		c0-0.583-0.169-1.054-0.508-1.412C65.394,4.882,64.958,4.703,64.425,4.703z"/>
</g>
</svg>
