<?xml version="1.0" encoding="utf-8"?>
<!-- Generator: Adobe Illustrator 17.0.0, SVG Export Plug-In . SVG Version: 6.00 Build 0)  -->
<!DOCTYPE svg PUBLIC "-//W3C//DTD SVG 1.1//EN" "http://www.w3.org/Graphics/SVG/1.1/DTD/svg11.dtd">
<svg version="1.1" id="Слой_1" xmlns="http://www.w3.org/2000/svg" xmlns:xlink="http://www.w3.org/1999/xlink" x="0px" y="0px"
	 width="7.676px" height="7.676px" viewBox="0 0 7.676 7.676" enable-background="new 0 0 7.676 7.676" xml:space="preserve">
<path fill-rule="evenodd" clip-rule="evenodd" fill="#2CDE97" d="M1.183,0h5.311c0.653,0,1.183,0.529,1.183,1.183v5.311
	c0,0.653-0.529,1.183-1.183,1.183H1.183C0.53,7.676,0,7.147,0,6.494V1.183C0,0.529,0.53,0,1.183,0L1.183,0L1.183,0z M5.599,0.868
	L5.599,0.868c-0.189,0-0.345,0.155-0.345,0.345V2.04c0,0.19,0.155,0.346,0.345,0.346h0.868c0.19,0,0.346-0.155,0.346-0.346V1.213
	c0-0.19-0.155-0.345-0.346-0.345H5.599L5.599,0.868z M6.816,3.261L6.816,3.261H6.141C6.205,3.47,6.239,3.691,6.239,3.92
	c0,1.277-1.067,2.312-2.386,2.312c-1.318,0-2.386-1.035-2.386-2.312c0-0.229,0.035-0.45,0.099-0.659H0.86v3.243
	c0,0.168,0.137,0.306,0.305,0.306h5.346c0.168,0,0.305-0.138,0.305-0.306V3.261L6.816,3.261z M3.853,2.342L3.853,2.342
	c-0.852,0-1.542,0.669-1.542,1.494s0.69,1.494,1.542,1.494c0.851,0,1.542-0.669,1.542-1.494S4.705,2.342,3.853,2.342z"/>
</svg>
