<?xml version="1.0" encoding="utf-8"?>
<!-- Generator: Adobe Illustrator 17.0.0, SVG Export Plug-In . SVG Version: 6.00 Build 0)  -->
<!DOCTYPE svg PUBLIC "-//W3C//DTD SVG 1.1//EN" "http://www.w3.org/Graphics/SVG/1.1/DTD/svg11.dtd">
<svg version="1.1" id="Слой_1" xmlns="http://www.w3.org/2000/svg" xmlns:xlink="http://www.w3.org/1999/xlink" x="0px" y="0px"
	 width="85.34px" height="13.433px" viewBox="0 0 85.34 13.433" enable-background="new 0 0 85.34 13.433" xml:space="preserve">
<g>
	<path fill="#979797" d="M1.016,3.274h1.867L2.482,6.214l3.03-2.939h2.324L4.112,6.829l3.033,3.883H4.773l-2.083-2.7L2.178,8.449
		l-0.311,2.263H0L1.016,3.274z"/>
	<path fill="#979797" d="M12.441,3.083c0.661,0,1.261,0.153,1.801,0.458s0.96,0.738,1.261,1.299s0.451,1.189,0.451,1.887
		c0,1.158-0.413,2.143-1.237,2.957s-1.846,1.22-3.062,1.22c-1.057,0-1.9-0.32-2.529-0.96S8.183,8.465,8.183,7.431
		c0-1.249,0.426-2.286,1.278-3.11S11.307,3.083,12.441,3.083z M12.314,4.812c-0.746,0-1.318,0.268-1.716,0.803
		s-0.597,1.115-0.597,1.74c0,0.556,0.163,1.004,0.488,1.343c0.326,0.339,0.759,0.509,1.3,0.509c0.769,0,1.354-0.259,1.757-0.776
		s0.604-1.108,0.604-1.774c0-0.547-0.171-0.991-0.512-1.333C13.297,4.983,12.856,4.812,12.314,4.812z"/>
	<path fill="#979797" d="M18.909,10.712h-1.867l1.016-7.438h6.42l-1.023,7.438h-1.874l0.771-5.64h-2.666L18.909,10.712z"/>
	<path fill="#979797" d="M26.441,10.712h-0.998l1.016-7.438h1.827l-0.571,4.331l4.143-4.331h0.971l-0.975,7.438h-1.858l0.582-4.259
		L26.441,10.712z"/>
	<path fill="#979797" d="M35.294,13.433h-1.821l1.388-10.158h1.794l-0.108,0.807c0.393-0.376,0.76-0.637,1.101-0.781
		c0.341-0.145,0.724-0.217,1.148-0.217c0.98,0,1.757,0.362,2.33,1.087c0.574,0.725,0.86,1.565,0.86,2.522
		c0,0.734-0.184,1.433-0.553,2.099s-0.863,1.184-1.484,1.555c-0.621,0.372-1.268,0.557-1.941,0.557
		c-0.455,0-0.875-0.104-1.262-0.314s-0.703-0.514-0.948-0.915L35.294,13.433z M38.353,4.703c-0.438,0-0.823,0.102-1.155,0.305
		c-0.332,0.203-0.61,0.519-0.833,0.948c-0.224,0.429-0.335,0.868-0.335,1.315c0,0.586,0.168,1.058,0.505,1.415
		c0.336,0.357,0.78,0.536,1.331,0.536c0.641,0,1.185-0.239,1.632-0.718c0.447-0.479,0.67-1.096,0.67-1.853
		c0-0.583-0.169-1.054-0.508-1.412C39.321,4.882,38.886,4.703,38.353,4.703z"/>
	<path fill="#979797" d="M49.565,3.274h1.828l-1.037,7.438h-1.807l0.109-0.799c-0.397,0.369-0.768,0.626-1.112,0.771
		c-0.345,0.146-0.731,0.219-1.16,0.219c-0.986,0-1.77-0.362-2.351-1.087s-0.873-1.568-0.873-2.529c0-0.734,0.186-1.432,0.559-2.095
		c0.372-0.663,0.872-1.18,1.499-1.552c0.627-0.372,1.284-0.557,1.969-0.557c0.459,0,0.883,0.105,1.272,0.316
		c0.388,0.211,0.708,0.519,0.961,0.922L49.565,3.274z M46.824,9.276c0.45,0,0.842-0.1,1.176-0.3c0.335-0.2,0.616-0.514,0.843-0.941
		c0.227-0.428,0.341-0.865,0.341-1.311c0-0.589-0.171-1.063-0.513-1.421c-0.342-0.359-0.792-0.538-1.352-0.538
		c-0.651,0-1.204,0.239-1.658,0.718c-0.454,0.479-0.681,1.096-0.681,1.853c0,0.583,0.172,1.053,0.516,1.408
		C45.84,9.099,46.283,9.276,46.824,9.276z"/>
	<path fill="#979797" d="M53.327,10.712h-0.998l1.016-7.438h1.827l-0.571,4.331l4.143-4.331h0.971l-0.975,7.438h-1.858l0.582-4.259
		L53.327,10.712z M54.223,0h1.511c0.078,0.182,0.194,0.312,0.35,0.39c0.229,0.114,0.512,0.171,0.85,0.171
		c0.311,0,0.579-0.047,0.805-0.14S58.146,0.187,58.283,0h1.511c-0.178,0.588-0.528,1.054-1.051,1.398s-1.188,0.516-1.995,0.516
		c-0.844,0-1.477-0.177-1.899-0.53C54.427,1.031,54.218,0.57,54.223,0z"/>
	<path fill="#979797" d="M61.031,3.274h6.932l-0.239,1.777h-2.452l-0.787,5.66H62.61l0.773-5.66h-2.599L61.031,3.274z"/>
	<path fill="#979797" d="M73.808,8.535l1.606,0.833c-0.36,0.474-0.837,0.848-1.432,1.123c-0.595,0.275-1.254,0.413-1.979,0.413
		c-1.135,0-2.029-0.319-2.683-0.957s-0.981-1.486-0.981-2.543c0-1.208,0.409-2.229,1.227-3.066s1.806-1.254,2.963-1.254
		c0.697,0,1.318,0.153,1.863,0.458s0.974,0.75,1.289,1.333s0.472,1.217,0.472,1.9c0,0.214-0.023,0.465-0.068,0.752H70.15
		c0.018,0.517,0.188,0.929,0.509,1.235s0.765,0.46,1.33,0.46C72.673,9.222,73.279,8.993,73.808,8.535z M74.272,6.187
		c-0.137-0.456-0.365-0.801-0.684-1.036s-0.704-0.352-1.155-0.352c-0.447,0-0.85,0.121-1.21,0.362s-0.633,0.583-0.82,1.025H74.272z"
		/>
	<path fill="#979797" d="M78.648,13.433h-1.821l1.388-10.158h1.794L79.9,4.081c0.393-0.376,0.76-0.637,1.101-0.781
		c0.341-0.145,0.724-0.217,1.148-0.217c0.98,0,1.757,0.362,2.33,1.087c0.574,0.725,0.86,1.565,0.86,2.522
		c0,0.734-0.184,1.433-0.553,2.099s-0.863,1.184-1.484,1.555c-0.621,0.372-1.268,0.557-1.941,0.557
		c-0.455,0-0.875-0.104-1.262-0.314s-0.703-0.514-0.948-0.915L78.648,13.433z M81.707,4.703c-0.438,0-0.823,0.102-1.155,0.305
		c-0.332,0.203-0.61,0.519-0.833,0.948c-0.224,0.429-0.335,0.868-0.335,1.315c0,0.586,0.168,1.058,0.505,1.415
		c0.336,0.357,0.78,0.536,1.331,0.536c0.641,0,1.185-0.239,1.632-0.718c0.447-0.479,0.67-1.096,0.67-1.853
		c0-0.583-0.169-1.054-0.508-1.412C82.675,4.882,82.239,4.703,81.707,4.703z"/>
</g>
</svg>
