<?xml version="1.0" encoding="utf-8"?>
<!-- Generator: Adobe Illustrator 17.0.0, SVG Export Plug-In . SVG Version: 6.00 Build 0)  -->
<!DOCTYPE svg PUBLIC "-//W3C//DTD SVG 1.1//EN" "http://www.w3.org/Graphics/SVG/1.1/DTD/svg11.dtd">
<svg version="1.1" id="Слой_1" xmlns="http://www.w3.org/2000/svg" xmlns:xlink="http://www.w3.org/1999/xlink" x="0px" y="0px"
	 width="85.976px" height="10.35px" viewBox="0 0 85.976 10.35" enable-background="new 0 0 85.976 10.35" xml:space="preserve">
<g>
	<path fill="#979797" d="M5.787,4.881l2.91-4.689h1.227l0.856,7.438H8.964L8.555,3.26L5.753,7.629H4.988l-1.58-4.358L1.824,7.629H0
		l2.867-7.438h1.235L5.787,4.881z"/>
	<path fill="#979797" d="M18.482,0.191h1.828l-1.037,7.438h-1.807l0.109-0.799c-0.397,0.369-0.768,0.626-1.112,0.771
		c-0.345,0.146-0.731,0.219-1.16,0.219c-0.986,0-1.77-0.362-2.351-1.087s-0.873-1.568-0.873-2.529c0-0.734,0.186-1.432,0.559-2.095
		c0.372-0.663,0.872-1.18,1.499-1.552C14.764,0.186,15.42,0,16.105,0c0.459,0,0.883,0.105,1.272,0.316
		c0.388,0.211,0.708,0.519,0.961,0.922L18.482,0.191z M15.741,6.193c0.45,0,0.842-0.1,1.176-0.3c0.335-0.2,0.616-0.514,0.843-0.941
		c0.227-0.428,0.341-0.865,0.341-1.311c0-0.589-0.171-1.063-0.513-1.421c-0.342-0.359-0.792-0.538-1.352-0.538
		c-0.651,0-1.204,0.239-1.658,0.718c-0.454,0.479-0.681,1.096-0.681,1.853c0,0.583,0.172,1.053,0.516,1.408
		C14.757,6.016,15.2,6.193,15.741,6.193z"/>
	<path fill="#979797" d="M22.696,10.35h-1.821l1.388-10.158h1.794l-0.108,0.807c0.393-0.376,0.76-0.637,1.101-0.781
		C25.39,0.072,25.773,0,26.197,0c0.98,0,1.757,0.362,2.33,1.087c0.574,0.725,0.86,1.565,0.86,2.522c0,0.734-0.184,1.433-0.553,2.099
		s-0.863,1.184-1.484,1.555C26.73,7.635,26.083,7.82,25.41,7.82c-0.455,0-0.875-0.104-1.262-0.314s-0.703-0.514-0.948-0.915
		L22.696,10.35z M25.754,1.62c-0.438,0-0.823,0.102-1.155,0.305c-0.332,0.203-0.61,0.519-0.833,0.948
		c-0.224,0.429-0.335,0.868-0.335,1.315c0,0.586,0.168,1.058,0.505,1.415c0.336,0.357,0.78,0.536,1.331,0.536
		c0.641,0,1.185-0.239,1.632-0.718c0.447-0.479,0.67-1.096,0.67-1.853c0-0.583-0.169-1.054-0.508-1.412
		C26.723,1.799,26.287,1.62,25.754,1.62z"/>
	<path fill="#979797" d="M31.504,0.191h1.867L32.97,3.131L36,0.191h2.324l-3.724,3.555l3.033,3.883h-2.372l-2.083-2.7l-0.513,0.438
		l-0.311,2.263h-1.867L31.504,0.191z"/>
	<path fill="#979797" d="M44.14,5.452l1.606,0.833c-0.36,0.474-0.837,0.848-1.432,1.123C43.719,7.683,43.06,7.82,42.335,7.82
		c-1.135,0-2.029-0.319-2.683-0.957s-0.981-1.486-0.981-2.543c0-1.208,0.409-2.229,1.227-3.066S41.704,0,42.861,0
		c0.697,0,1.318,0.153,1.863,0.458s0.974,0.75,1.289,1.333s0.472,1.217,0.472,1.9c0,0.214-0.023,0.465-0.068,0.752h-5.934
		C40.5,4.96,40.67,5.372,40.992,5.679s0.765,0.46,1.33,0.46C43.005,6.139,43.611,5.91,44.14,5.452z M44.604,3.104
		c-0.137-0.456-0.365-0.801-0.684-1.036s-0.704-0.352-1.155-0.352c-0.447,0-0.85,0.121-1.21,0.362s-0.633,0.583-0.82,1.025H44.604z"
		/>
	<path fill="#979797" d="M47.831,0.191h6.932l-0.239,1.777h-2.452l-0.787,5.66H49.41l0.773-5.66h-2.599L47.831,0.191z"/>
	<path fill="#979797" d="M59.397,0c0.661,0,1.261,0.153,1.801,0.458s0.96,0.738,1.261,1.299s0.451,1.189,0.451,1.887
		c0,1.158-0.413,2.143-1.237,2.957s-1.846,1.22-3.062,1.22c-1.057,0-1.9-0.32-2.529-0.96s-0.943-1.478-0.943-2.512
		c0-1.249,0.426-2.286,1.278-3.11S58.263,0,59.397,0z M59.271,1.729c-0.746,0-1.318,0.268-1.716,0.803s-0.597,1.115-0.597,1.74
		c0,0.556,0.163,1.004,0.488,1.343c0.326,0.339,0.759,0.509,1.3,0.509c0.769,0,1.354-0.259,1.757-0.776s0.604-1.108,0.604-1.774
		c0-0.547-0.171-0.991-0.512-1.333C60.253,1.9,59.812,1.729,59.271,1.729z"/>
	<path fill="#979797" d="M70.656,7.629h-1.955l-1.193-4.548l-2.447,4.548h-1.952l4.182-7.438h1.203L70.656,7.629z"/>
	<path fill="#979797" d="M76.029,0c0.661,0,1.261,0.153,1.801,0.458s0.96,0.738,1.261,1.299s0.451,1.189,0.451,1.887
		c0,1.158-0.413,2.143-1.237,2.957s-1.846,1.22-3.062,1.22c-1.057,0-1.9-0.32-2.529-0.96s-0.943-1.478-0.943-2.512
		c0-1.249,0.426-2.286,1.278-3.11S74.895,0,76.029,0z M75.902,1.729c-0.746,0-1.318,0.268-1.716,0.803s-0.597,1.115-0.597,1.74
		c0,0.556,0.163,1.004,0.488,1.343c0.326,0.339,0.759,0.509,1.3,0.509c0.769,0,1.354-0.259,1.757-0.776s0.604-1.108,0.604-1.774
		c0-0.547-0.171-0.991-0.512-1.333C76.885,1.9,76.444,1.729,75.902,1.729z"/>
	<path fill="#979797" d="M81.646,0.191h4.33l-0.239,1.777h-2.459l-0.773,5.66H80.63L81.646,0.191z"/>
</g>
</svg>
