<?xml version="1.0" encoding="utf-8"?>
<!-- Generator: Adobe Illustrator 17.0.0, SVG Export Plug-In . SVG Version: 6.00 Build 0)  -->
<!DOCTYPE svg PUBLIC "-//W3C//DTD SVG 1.1//EN" "http://www.w3.org/Graphics/SVG/1.1/DTD/svg11.dtd">
<svg version="1.1" id="svg2" xmlns:svg="http://www.w3.org/2000/svg"
	 xmlns="http://www.w3.org/2000/svg" xmlns:xlink="http://www.w3.org/1999/xlink" x="0px" y="0px" width="396.96px"
	 height="237.673px" viewBox="746.52 499.164 396.96 237.673" enable-background="new 746.52 499.164 396.96 237.673"
	 xml:space="preserve">
<g id="layer1">
	<g id="g10305">
		<path id="path2268" fill="#FF9900" d="M1143.48,618c0.02,65.611-53.152,118.816-118.764,118.836
			c-65.611,0.02-118.816-53.152-118.836-118.764c0-0.024,0-0.048,0-0.073c-0.02-65.611,53.152-118.816,118.764-118.836
			s118.816,53.152,118.836,118.764C1143.48,617.951,1143.48,617.976,1143.48,618z"/>
		<path id="path1350" fill="#CC0000" d="M864.555,499.2C799.33,499.613,746.52,552.678,746.52,618
			c0,65.578,53.222,118.8,118.8,118.8c30.778,0,58.833-11.731,79.943-30.953c-0.003-0.002-0.005-0.005-0.008-0.008h0.023
			c4.324-3.938,8.355-8.189,12.06-12.72H933c-3.25-3.927-6.203-8.016-8.857-12.24h41.977c2.553-4.082,4.864-8.326,6.915-12.72
			h-55.823c-1.903-4.081-3.554-8.25-4.965-12.48h65.76c3.962-11.842,6.112-24.511,6.112-37.68c0-8.731-0.947-17.243-2.737-25.44
			H908.76c0.901-4.217,2.034-8.385,3.39-12.48h65.782c-1.468-4.358-3.179-8.604-5.122-12.72h-55.605
			c2.004-4.285,4.278-8.453,6.818-12.48h41.948c-2.796-4.446-5.882-8.696-9.225-12.72H933.36c3.617-4.256,7.596-8.263,11.917-12
			c-21.111-19.228-49.174-30.96-79.958-30.96C865.064,499.2,864.811,499.198,864.555,499.2z"/>
		<path id="use9412" fill="#FCB340" d="M1131.562,680.107c0.645,0,1.274,0.166,1.888,0.499c0.614,0.329,1.093,0.802,1.435,1.42
			c0.343,0.614,0.514,1.255,0.514,1.924c0,0.662-0.17,1.298-0.509,1.909c-0.336,0.611-0.809,1.086-1.42,1.425
			c-0.607,0.336-1.244,0.504-1.909,0.504s-1.303-0.168-1.914-0.504c-0.607-0.339-1.081-0.814-1.42-1.425
			c-0.339-0.611-0.509-1.247-0.509-1.909c0-0.668,0.171-1.31,0.514-1.924c0.346-0.618,0.826-1.091,1.44-1.42
			C1130.288,680.273,1130.917,680.107,1131.562,680.107 M1131.562,680.743c-0.54,0-1.065,0.139-1.578,0.417
			c-0.509,0.275-0.908,0.67-1.196,1.186c-0.288,0.512-0.432,1.047-0.432,1.603c0,0.553,0.141,1.084,0.422,1.593
			c0.285,0.506,0.682,0.901,1.191,1.186c0.509,0.282,1.04,0.422,1.593,0.422s1.084-0.141,1.593-0.422
			c0.509-0.285,0.904-0.68,1.186-1.186c0.282-0.509,0.422-1.04,0.422-1.593c0-0.556-0.144-1.091-0.433-1.603
			c-0.285-0.516-0.684-0.911-1.196-1.186C1132.622,680.882,1132.098,680.743,1131.562,680.743 M1129.877,686.071v-4.133h1.42
			c0.485,0,0.836,0.039,1.053,0.117c0.217,0.075,0.39,0.207,0.519,0.397s0.193,0.392,0.193,0.606c0,0.302-0.109,0.565-0.326,0.789
			c-0.214,0.224-0.499,0.349-0.855,0.377c0.146,0.061,0.263,0.134,0.351,0.219c0.166,0.163,0.37,0.436,0.611,0.819l0.504,0.809
			h-0.814l-0.366-0.651c-0.288-0.512-0.521-0.833-0.697-0.962c-0.122-0.095-0.3-0.143-0.534-0.143h-0.392v1.756H1129.877
			 M1130.544,683.746h0.809c0.387,0,0.65-0.058,0.789-0.173c0.142-0.115,0.214-0.268,0.214-0.458c0-0.122-0.034-0.231-0.102-0.326
			c-0.068-0.098-0.163-0.171-0.285-0.219c-0.119-0.047-0.341-0.071-0.667-0.071h-0.758V683.746"/>
	</g>
	<g id="g16480">
		<g id="g13802" transform="translate(-13.74405,15.9939)">
			<path id="path13804" fill="#254473" d="M918.486,636.09l1.583-10.751c-0.864,0-2.136,0.373-3.259,0.373
				c-4.403,0-4.952-2.354-4.607-4.072l4.339-21.625h6.693l1.38-12.204h-6.307l1.284-7.397h-13.197
				c-0.279,0.279-7.467,41.594-7.467,46.626c0,7.45,4.182,10.766,10.077,10.712C913.621,637.709,917.218,636.43,918.486,636.09z"/>
			<path id="path13806" fill="#254473" d="M922.492,615.589c0,17.877,11.799,22.123,21.852,22.123
				c9.279,0,14.145-2.149,14.145-2.149l2.229-12.2c0,0-7.841,3.19-14.215,3.19c-13.583,0-11.202-10.129-11.202-10.129l26.096,0.078
				c0,0,1.662-8.195,1.662-11.533c0-8.335-4.54-18.567-18.429-18.567C931.909,586.401,922.492,600.105,922.492,615.589z
				 M944.676,597.726c7.138,0,5.821,8.023,5.821,8.671h-14.044C936.454,605.569,937.78,597.726,944.676,597.726z"/>
			<path id="path13808" fill="#254473" d="M1024.773,636.084l2.265-13.787c0,0-6.21,3.11-10.467,3.11
				c-8.973,0-12.573-6.852-12.573-14.212c0-14.932,7.722-23.147,16.314-23.147c6.446,0,11.619,3.619,11.619,3.619l2.066-13.398
				c0,0-6.105-4.409-12.68-4.435c-19.77-0.078-31.078,13.686-31.078,37.478c0,15.772,8.374,26.507,23.468,26.507
				C1017.973,637.818,1024.773,636.084,1024.773,636.084z"/>
			<path id="path13810" fill="#254473" d="M848.915,586.595c-8.674,0-15.322,2.787-15.322,2.787l-1.836,10.897
				c0,0,5.488-2.23,13.784-2.23c4.71,0,8.156,0.53,8.156,4.357c0,2.325-0.421,3.183-0.421,3.183s-3.717-0.311-5.437-0.311
				c-12.349,0-22.431,4.67-22.431,18.745c0,11.093,7.539,13.636,12.212,13.636c8.925,0,12.459-5.635,12.663-5.651l-0.103,4.677
				c0,0,11.137,0.001,11.137,0l4.968-34.835C866.286,587.07,853.393,586.595,848.915,586.595z M850.843,614.878
				c0.241,2.129-0.55,12.183-8.168,12.183c-3.929,0-4.949-3.004-4.949-4.775c0-3.464,1.881-7.617,11.149-7.617
				C851.033,614.669,850.48,614.821,850.843,614.878z"/>
			<path id="path13812" fill="#254473" d="M878.124,637.404c2.849,0,19.136,0.723,19.136-16.082
				c0-15.713-15.077-12.61-15.077-18.922c0-3.142,2.457-4.132,6.95-4.132c1.782,0,8.644,0.568,8.644,0.568l1.595-11.168
				c0,0.002-4.44-0.994-11.669-0.994c-9.357,0-18.856,3.737-18.856,16.516c0,14.482,15.838,13.029,15.838,19.128
				c0,4.071-4.425,4.406-7.835,4.406c-5.901,0-11.214-2.024-11.232-1.93l-1.688,11.058
				C864.236,635.945,867.513,637.404,878.124,637.404z"/>
			<path id="path13814" fill="#254473" d="M1129.105,576.462l-2.284,17.041c0,0-4.762-6.577-12.218-6.577
				c-14.024,0-21.25,13.974-21.25,30.03c0,10.364,5.154,20.519,15.687,20.519c7.579,0,11.778-5.284,11.778-5.284l-0.557,4.511
				h12.303l9.665-60.15L1129.105,576.462z M1123.676,609.584c0,6.682-3.309,15.604-10.166,15.604c-4.553,0-6.687-3.821-6.687-9.819
				c0-9.808,4.405-16.278,9.962-16.278C1121.338,599.091,1123.676,602.219,1123.676,609.584z"/>
			<path id="path13816" fill="#254473" d="M780.427,636.755l7.701-45.411l1.13,45.411h8.715l16.257-45.411l-7.201,45.411h12.95
				l9.972-60.23l-20.572-0.157l-12.236,36.876l-0.336-36.72h-18.85l-10.116,60.23H780.427z"/>
			<path id="path13818" fill="#254473" d="M975.314,636.839c3.683-20.936,4.991-37.468,15.731-34.043
				c1.54-8.105,5.215-15.152,6.893-18.582c0,0-0.529-0.791-3.847-0.791c-5.664,0-13.229,11.497-13.229,11.497l1.128-7.108H970.21
				l-7.889,49.027H975.314z"/>
			<g id="use14699" transform="translate(845.3001,0)">
				<path id="path13810_1_" fill="#254473" d="M1051.787,586.595c-8.674,0-15.322,2.787-15.322,2.787l-1.836,10.897
					c0,0,5.488-2.23,13.784-2.23c4.71,0,8.156,0.53,8.156,4.357c0,2.325-0.421,3.183-0.421,3.183s-3.717-0.311-5.437-0.311
					c-12.349,0-22.431,4.67-22.431,18.745c0,11.093,7.539,13.636,12.212,13.636c8.925,0,12.459-5.635,12.663-5.651l-0.103,4.677
					c0,0,11.137,0.001,11.137,0l4.968-34.835C1069.158,587.07,1056.266,586.595,1051.787,586.595z M1053.715,614.878
					c0.241,2.129-0.55,12.183-8.168,12.183c-3.929,0-4.949-3.004-4.949-4.775c0-3.464,1.881-7.617,11.149-7.617
					C1053.905,614.669,1053.352,614.821,1053.715,614.878z"/>
			</g>
			<path id="use14701" fill="#254473" d="M1081.453,636.839c2.022-15.403,5.766-37.026,15.731-34.043
				c1.54-8.105,0.055-8.083-3.263-8.083c-5.664,0-6.921,0.208-6.921,0.208l1.128-7.108h-11.779l-7.889,49.027H1081.453z"/>
		</g>
		<g id="g10289">
			<path id="path4157" fill="#FFFFFF" d="M908.04,648.245l1.583-10.751c-0.864,0-2.136,0.373-3.259,0.373
				c-4.403,0-4.888-2.342-4.607-4.072l3.556-21.938h6.693l1.614-11.891h-6.307l1.284-7.397h-12.649
				c-0.279,0.279-7.467,41.594-7.467,46.626c0,7.45,4.182,10.766,10.077,10.712C903.176,649.864,906.772,648.585,908.04,648.245z"/>
			<path id="path4155" fill="#FFFFFF" d="M912.047,627.744c0,17.877,11.798,22.123,21.852,22.123c9.279,0,13.362-2.071,13.362-2.071
				l2.229-12.2c0,0-7.059,3.111-13.432,3.111c-13.583,0-11.202-10.129-11.202-10.129h25.705c0,0,1.662-8.195,1.662-11.533
				c0-8.335-4.149-18.489-18.038-18.489C921.463,598.557,912.047,612.26,912.047,627.744z M934.231,609.881
				c7.138,0,5.821,8.023,5.821,8.671h-14.044C926.008,617.724,927.335,609.881,934.231,609.881z"/>
			<path id="path4151" fill="#FFFFFF" d="M1014.328,648.24l2.265-13.787c0,0-6.21,3.111-10.467,3.111
				c-8.973,0-12.573-6.852-12.573-14.212c0-14.932,7.722-23.147,16.314-23.147c6.446,0,11.619,3.619,11.619,3.619l2.066-13.398
				c0,0-7.67-3.105-14.245-3.105c-14.604,0-28.809,12.669-28.809,36.461c0,15.772,7.669,26.194,22.764,26.194
				C1007.528,649.974,1014.328,648.24,1014.328,648.24z"/>
			<path id="path4149" fill="#FFFFFF" d="M838.47,598.75c-8.674,0-15.322,2.787-15.322,2.787l-1.836,10.897
				c0,0,5.488-2.23,13.784-2.23c4.71,0,8.156,0.53,8.156,4.357c0,2.325-0.421,3.183-0.421,3.183s-3.717-0.311-5.437-0.311
				c-10.94,0-22.431,4.67-22.431,18.745c0,11.093,7.539,13.636,12.212,13.636c8.925,0,12.772-5.792,12.976-5.808l-0.416,4.834
				c0,0,11.137,0.001,11.137,0l4.968-34.835C855.84,599.226,842.948,598.75,838.47,598.75z M841.18,627.112
				c0.241,2.129-1.333,12.105-8.951,12.105c-3.929,0-4.949-3.004-4.949-4.775c0-3.464,1.881-7.617,11.149-7.617
				C840.587,626.824,840.817,627.055,841.18,627.112z"/>
			<path id="path4145" fill="#FFFFFF" d="M867.679,649.559c2.849,0,19.136,0.723,19.136-16.082
				c0-15.713-15.077-12.611-15.077-18.922c0-3.142,2.457-4.132,6.95-4.132c1.782,0,8.644,0.568,8.644,0.568l1.595-11.168
				c0,0.002-4.44-0.994-11.669-0.994c-9.357,0-18.856,3.737-18.856,16.516c0,14.482,15.838,13.029,15.838,19.128
				c0,4.071-4.425,4.406-7.835,4.406c-5.901,0-11.214-2.024-11.232-1.93l-1.688,11.058
				C853.791,648.1,857.068,649.559,867.679,649.559z"/>
			<path id="path4139" fill="#FFFFFF" d="M1119.102,588.728l-2.726,16.931c0,0-4.762-6.577-12.218-6.577
				c-11.587,0-21.25,13.974-21.25,30.03c0,10.364,5.154,20.519,15.687,20.519c7.579,0,11.779-5.284,11.779-5.284l-0.557,4.512
				h12.303l9.665-60.15L1119.102,588.728z M1113.23,621.74c0,6.682-3.309,15.604-10.166,15.604c-4.553,0-6.687-3.82-6.687-9.819
				c0-9.808,4.405-16.278,9.962-16.278C1110.892,611.246,1113.23,614.374,1113.23,621.74z"/>
			<path id="path4133" fill="#FFFFFF" d="M769.981,648.91l7.701-45.411l1.13,45.411h8.715l16.257-45.411l-7.201,45.411h12.949
				l9.972-60.23H799.48l-12.47,36.955l-0.649-36.955h-18.459l-10.116,60.23H769.981z"/>
			<path id="path4131" fill="#FFFFFF" d="M964.868,648.994c3.683-20.936,4.365-37.938,13.148-34.825
				c1.54-8.105,3.023-11.239,4.701-14.669c0,0-0.787-0.165-2.438-0.165c-5.664,0-9.864,7.74-9.864,7.74l1.128-7.108h-11.779
				l-7.889,49.027H964.868z"/>
			<g id="use8523" transform="translate(847.0062,0)">
				<path id="path4149_1_" fill="#FFFFFF" d="M1041.751,598.75c-8.674,0-15.322,2.787-15.322,2.787l-1.836,10.897
					c0,0,5.488-2.23,13.784-2.23c4.71,0,8.156,0.53,8.156,4.357c0,2.325-0.421,3.183-0.421,3.183s-3.717-0.311-5.437-0.311
					c-10.94,0-22.431,4.67-22.431,18.745c0,11.093,7.539,13.636,12.212,13.636c8.925,0,12.772-5.792,12.976-5.808l-0.416,4.834
					c0,0,11.137,0.001,11.137,0l4.968-34.835C1059.122,599.226,1046.229,598.75,1041.751,598.75z M1044.462,627.112
					c0.241,2.129-1.333,12.105-8.951,12.105c-3.929,0-4.949-3.004-4.949-4.775c0-3.464,1.881-7.617,11.149-7.617
					C1043.869,626.824,1044.098,627.055,1044.462,627.112z"/>
			</g>
			<g id="use8525" transform="translate(442.2857,0)">
				<path id="path4131_1_" fill="#FFFFFF" d="M1071.017,648.994c3.683-20.936,4.365-37.938,13.148-34.825
					c1.54-8.105,3.023-11.239,4.701-14.669c0,0-0.787-0.165-2.438-0.165c-5.664,0-9.864,7.74-9.864,7.74l1.128-7.108h-11.779
					l-7.889,49.027H1071.017z"/>
			</g>
			<path id="text9407" fill="#FFFFFF" d="M1131.512,641.429c0.645,0,1.274,0.166,1.888,0.499c0.614,0.329,1.093,0.802,1.435,1.42
				c0.343,0.614,0.514,1.255,0.514,1.924c0,0.662-0.17,1.298-0.509,1.909c-0.336,0.611-0.809,1.086-1.42,1.425
				c-0.607,0.336-1.244,0.504-1.909,0.504s-1.303-0.168-1.914-0.504c-0.607-0.339-1.081-0.814-1.42-1.425
				c-0.339-0.611-0.509-1.247-0.509-1.909c0-0.668,0.171-1.31,0.514-1.924c0.346-0.617,0.826-1.091,1.44-1.42
				C1130.238,641.595,1130.867,641.429,1131.512,641.429 M1131.512,642.065c-0.54,0-1.065,0.139-1.578,0.417
				c-0.509,0.275-0.908,0.67-1.196,1.186c-0.288,0.512-0.433,1.047-0.433,1.603c0,0.553,0.141,1.084,0.422,1.593
				c0.285,0.506,0.682,0.901,1.191,1.186c0.509,0.282,1.04,0.422,1.593,0.422s1.084-0.141,1.593-0.422
				c0.509-0.285,0.904-0.68,1.186-1.186c0.282-0.509,0.422-1.04,0.422-1.593c0-0.556-0.144-1.091-0.433-1.603
				c-0.285-0.516-0.684-0.911-1.196-1.186C1132.572,642.204,1132.048,642.065,1131.512,642.065 M1129.827,647.393v-4.133h1.42
				c0.485,0,0.836,0.039,1.053,0.117c0.217,0.075,0.39,0.207,0.519,0.397s0.193,0.392,0.193,0.606c0,0.302-0.109,0.565-0.326,0.789
				c-0.214,0.224-0.499,0.349-0.855,0.377c0.146,0.061,0.263,0.134,0.351,0.219c0.166,0.163,0.37,0.436,0.611,0.819l0.504,0.809
				h-0.814l-0.366-0.651c-0.288-0.512-0.521-0.833-0.697-0.962c-0.122-0.095-0.3-0.143-0.534-0.143h-0.392v1.756H1129.827
				 M1130.494,645.068h0.809c0.387,0,0.65-0.058,0.789-0.173c0.142-0.115,0.214-0.268,0.214-0.458c0-0.122-0.034-0.231-0.102-0.326
				c-0.068-0.098-0.163-0.171-0.285-0.219c-0.119-0.047-0.341-0.071-0.667-0.071h-0.758V645.068"/>
		</g>
	</g>
</g>
</svg>
