<?xml version="1.0" encoding="utf-8"?>
<!-- Generator: Adobe Illustrator 17.0.0, SVG Export Plug-In . SVG Version: 6.00 Build 0)  -->
<!DOCTYPE svg PUBLIC "-//W3C//DTD SVG 1.1//EN" "http://www.w3.org/Graphics/SVG/1.1/DTD/svg11.dtd">
<svg version="1.1" id="Слой_1" xmlns="http://www.w3.org/2000/svg" xmlns:xlink="http://www.w3.org/1999/xlink" x="0px" y="0px"
	 width="161.602px" height="30.319px" viewBox="0 0 161.602 30.319" enable-background="new 0 0 161.602 30.319"
	 xml:space="preserve">
<g>
	<path fill="#979797" d="M18.263,12.026h-1.867l1.016-7.438h1.867l-0.366,2.68h2.672l0.366-2.68h1.874l-1.016,7.438h-1.874
		l0.421-3.083h-2.673L18.263,12.026z"/>
	<path fill="#979797" d="M31.275,4.588h1.828l-1.037,7.438h-1.807l0.109-0.799c-0.397,0.369-0.768,0.626-1.112,0.771
		c-0.345,0.146-0.731,0.219-1.16,0.219c-0.986,0-1.77-0.362-2.351-1.087s-0.873-1.568-0.873-2.529c0-0.734,0.186-1.432,0.559-2.095
		c0.372-0.663,0.872-1.18,1.499-1.552c0.627-0.372,1.284-0.557,1.969-0.557c0.459,0,0.883,0.105,1.272,0.316
		c0.388,0.211,0.708,0.519,0.961,0.922L31.275,4.588z M28.534,10.59c0.45,0,0.842-0.1,1.176-0.3c0.335-0.2,0.616-0.514,0.843-0.941
		c0.227-0.428,0.341-0.865,0.341-1.311c0-0.589-0.171-1.063-0.513-1.421c-0.342-0.359-0.792-0.538-1.352-0.538
		c-0.651,0-1.204,0.239-1.658,0.718c-0.454,0.479-0.681,1.096-0.681,1.853c0,0.583,0.172,1.053,0.516,1.408
		C27.551,10.413,27.993,10.59,28.534,10.59z"/>
	<path fill="#979797" d="M38.367,9.073h-1.292c-0.739,0-1.324-0.093-1.754-0.28s-0.722-0.419-0.872-0.697s-0.226-0.622-0.226-1.032
		c0-0.15,0.011-0.317,0.034-0.499l0.273-1.976h1.874l-0.198,1.463c-0.032,0.228-0.048,0.415-0.048,0.561
		c0,0.237,0.051,0.411,0.154,0.523c0.103,0.112,0.26,0.182,0.473,0.212s0.636,0.044,1.271,0.044h0.542l0.383-2.803h1.867
		l-1.016,7.438h-1.867L38.367,9.073z"/>
	<path fill="#979797" d="M48.304,4.588h1.828l-1.037,7.438h-1.807l0.109-0.799c-0.397,0.369-0.768,0.626-1.112,0.771
		c-0.345,0.146-0.731,0.219-1.16,0.219c-0.986,0-1.77-0.362-2.351-1.087s-0.873-1.568-0.873-2.529c0-0.734,0.186-1.432,0.559-2.095
		c0.372-0.663,0.872-1.18,1.499-1.552c0.627-0.372,1.284-0.557,1.969-0.557c0.459,0,0.883,0.105,1.272,0.316
		c0.388,0.211,0.708,0.519,0.961,0.922L48.304,4.588z M45.562,10.59c0.45,0,0.842-0.1,1.176-0.3c0.335-0.2,0.616-0.514,0.843-0.941
		c0.227-0.428,0.341-0.865,0.341-1.311c0-0.589-0.171-1.063-0.513-1.421c-0.342-0.359-0.792-0.538-1.352-0.538
		c-0.651,0-1.204,0.239-1.658,0.718c-0.454,0.479-0.681,1.096-0.681,1.853c0,0.583,0.172,1.053,0.516,1.408
		C44.579,10.413,45.021,10.59,45.562,10.59z"/>
	<path fill="#979797" d="M57.726,12.026h-1.955l-1.193-4.548l-2.447,4.548h-1.952l4.182-7.438h1.203L57.726,12.026z"/>
	<path fill="#979797" d="M61.618,4.588l-0.366,2.68h0.553c1.138,0,1.914,0.213,2.328,0.639s0.621,0.958,0.621,1.596
		c0,0.456-0.095,0.875-0.284,1.258s-0.419,0.663-0.69,0.841s-0.561,0.293-0.868,0.345s-0.824,0.079-1.548,0.079h-2.625l1.016-7.438
		H61.618z M60.798,10.59h0.567c0.546,0,0.921-0.085,1.126-0.256c0.205-0.171,0.307-0.425,0.307-0.762
		c0-0.524-0.328-0.786-0.983-0.786h-0.771L60.798,10.59z"/>
	<path fill="#979797" d="M67.714,12.026h-1.867l1.016-7.438h1.867l-0.366,2.68h2.672l0.366-2.68h1.874l-1.016,7.438h-1.874
		l0.421-3.083h-2.673L67.714,12.026z"/>
	<path fill="#979797" d="M75.247,12.026h-0.998l1.016-7.438h1.827l-0.571,4.331l4.143-4.331h0.971l-0.975,7.438h-1.858l0.582-4.259
		L75.247,12.026z"/>
	<path fill="#979797" d="M83.666,4.588h1.867l-0.401,2.939l3.03-2.939h2.324l-3.724,3.555l3.033,3.883h-2.372l-2.083-2.7
		l-0.513,0.438l-0.311,2.263H82.65L83.666,4.588z"/>
	<path fill="#979797" d="M99.008,4.397c0.661,0,1.261,0.153,1.801,0.458s0.96,0.738,1.261,1.299s0.451,1.189,0.451,1.887
		c0,1.158-0.413,2.143-1.237,2.957s-1.846,1.22-3.062,1.22c-1.057,0-1.9-0.32-2.529-0.96S94.75,9.779,94.75,8.745
		c0-1.249,0.426-2.286,1.278-3.11S97.874,4.397,99.008,4.397z M98.881,6.126c-0.746,0-1.318,0.268-1.716,0.803
		s-0.597,1.115-0.597,1.74c0,0.556,0.163,1.004,0.488,1.343c0.326,0.339,0.759,0.509,1.3,0.509c0.769,0,1.354-0.259,1.757-0.776
		s0.604-1.108,0.604-1.774c0-0.547-0.171-0.991-0.512-1.333C99.864,6.297,99.423,6.126,98.881,6.126z"/>
	<path fill="#979797" d="M103.91,4.588h6.932l-0.239,1.777h-2.452l-0.787,5.66h-1.874l0.773-5.66h-2.599L103.91,4.588z"/>
	<path fill="#979797" d="M112.003,12.026l-0.209,1.292h-1.745l0.39-2.878h1.121l3.357-5.852h1.205l1.802,5.852h1.134l-0.389,2.878
		h-1.784l0.178-1.292H112.003z M115.975,10.44l-0.721-3.514h-0.116l-1.67,3.514H115.975z"/>
	<path fill="#979797" d="M125.532,9.849l1.606,0.833c-0.36,0.474-0.837,0.848-1.432,1.123c-0.595,0.275-1.254,0.413-1.979,0.413
		c-1.135,0-2.029-0.319-2.683-0.957s-0.981-1.486-0.981-2.543c0-1.208,0.409-2.229,1.227-3.066s1.806-1.254,2.963-1.254
		c0.697,0,1.318,0.153,1.863,0.458s0.974,0.75,1.289,1.333s0.472,1.217,0.472,1.9c0,0.214-0.023,0.465-0.068,0.752h-5.934
		c0.018,0.517,0.188,0.929,0.509,1.235s0.765,0.46,1.33,0.46C124.397,10.536,125.003,10.307,125.532,9.849z M125.997,7.5
		c-0.137-0.456-0.365-0.801-0.684-1.036s-0.704-0.352-1.155-0.352c-0.447,0-0.85,0.121-1.21,0.362s-0.633,0.583-0.82,1.025H125.997z
		"/>
	<path fill="#979797" d="M135.581,12.026h-1.955l-1.193-4.548l-2.447,4.548h-1.952l4.182-7.438h1.203L135.581,12.026z"/>
	<path fill="#979797" d="M143.07,4.588h1.828l-1.037,7.438h-1.807l0.109-0.799c-0.397,0.369-0.768,0.626-1.112,0.771
		c-0.345,0.146-0.731,0.219-1.16,0.219c-0.986,0-1.77-0.362-2.351-1.087s-0.873-1.568-0.873-2.529c0-0.734,0.186-1.432,0.559-2.095
		c0.372-0.663,0.872-1.18,1.499-1.552c0.627-0.372,1.284-0.557,1.969-0.557c0.459,0,0.883,0.105,1.272,0.316
		c0.388,0.211,0.708,0.519,0.961,0.922L143.07,4.588z M140.329,10.59c0.45,0,0.842-0.1,1.176-0.3c0.335-0.2,0.616-0.514,0.843-0.941
		c0.227-0.428,0.341-0.865,0.341-1.311c0-0.589-0.171-1.063-0.513-1.421c-0.342-0.359-0.792-0.538-1.352-0.538
		c-0.651,0-1.204,0.239-1.658,0.718c-0.454,0.479-0.681,1.096-0.681,1.853c0,0.583,0.172,1.053,0.516,1.408
		C139.346,10.413,139.788,10.59,140.329,10.59z"/>
	<path fill="#979797" d="M1.331,18.588h1.867l-0.401,2.939l3.03-2.939H8.15l-3.724,3.555l3.033,3.883H5.088l-2.083-2.7l-0.513,0.438
		l-0.311,2.263H0.314L1.331,18.588z"/>
	<path fill="#979797" d="M12.756,18.397c0.661,0,1.261,0.153,1.801,0.458s0.96,0.738,1.261,1.299s0.451,1.189,0.451,1.887
		c0,1.158-0.413,2.143-1.237,2.957s-1.846,1.22-3.062,1.22c-1.057,0-1.9-0.32-2.529-0.96s-0.943-1.478-0.943-2.512
		c0-1.249,0.426-2.286,1.278-3.11S11.621,18.397,12.756,18.397z M12.629,20.126c-0.746,0-1.318,0.268-1.716,0.803
		s-0.597,1.115-0.597,1.74c0,0.556,0.163,1.004,0.488,1.343c0.326,0.339,0.759,0.509,1.3,0.509c0.769,0,1.354-0.259,1.757-0.776
		s0.604-1.108,0.604-1.774c0-0.547-0.171-0.991-0.512-1.333C13.612,20.297,13.17,20.126,12.629,20.126z"/>
	<path fill="#979797" d="M19.223,26.026h-1.867l1.016-7.438h1.867l-0.366,2.68h2.672l0.366-2.68h1.874l-1.016,7.438h-1.874
		l0.421-3.083h-2.673L19.223,26.026z"/>
	<path fill="#979797" d="M26.059,18.588h6.932l-0.239,1.777h-2.452l-0.787,5.66h-1.874l0.773-5.66h-2.599L26.059,18.588z"/>
	<path fill="#979797" d="M38.835,23.849l1.606,0.833c-0.36,0.474-0.837,0.848-1.432,1.123c-0.595,0.275-1.254,0.413-1.979,0.413
		c-1.135,0-2.029-0.319-2.683-0.957s-0.981-1.486-0.981-2.543c0-1.208,0.409-2.229,1.227-3.066s1.806-1.254,2.963-1.254
		c0.697,0,1.318,0.153,1.863,0.458s0.974,0.75,1.289,1.333s0.472,1.217,0.472,1.9c0,0.214-0.023,0.465-0.068,0.752h-5.934
		c0.018,0.517,0.188,0.929,0.509,1.235s0.765,0.46,1.33,0.46C37.7,24.536,38.306,24.307,38.835,23.849z M39.3,21.5
		c-0.137-0.456-0.365-0.801-0.684-1.036s-0.704-0.352-1.155-0.352c-0.447,0-0.85,0.121-1.21,0.362s-0.633,0.583-0.82,1.025H39.3z"/>
	<path fill="#979797" d="M43.242,18.588h1.867l-0.401,2.939l3.03-2.939h2.324l-3.724,3.555l3.033,3.883h-2.372l-2.083-2.7
		l-0.513,0.438l-0.311,2.263h-1.867L43.242,18.588z"/>
	<path fill="#979797" d="M58.109,20.125l-1.544,0.84c-0.438-0.555-1.025-0.833-1.763-0.833c-0.497,0-0.936,0.106-1.319,0.317
		c-0.382,0.211-0.688,0.518-0.915,0.918c-0.228,0.4-0.342,0.824-0.342,1.27c0,0.573,0.18,1.033,0.54,1.379
		c0.36,0.346,0.854,0.519,1.483,0.519c0.87,0,1.537-0.293,2.001-0.88l1.435,1.014c-0.406,0.484-0.911,0.863-1.515,1.137
		s-1.278,0.411-2.021,0.411c-1.158,0-2.071-0.319-2.739-0.957s-1.002-1.481-1.002-2.529c0-1.199,0.413-2.221,1.238-3.066
		s1.888-1.268,3.187-1.268C56.296,18.397,57.389,18.973,58.109,20.125z"/>
	<path fill="#979797" d="M59.568,18.588H66.5l-0.239,1.777h-2.452l-0.787,5.66h-1.874l0.773-5.66h-2.599L59.568,18.588z"/>
	<path fill="#979797" d="M68.64,26.026h-1.867l1.016-7.438h1.867l-0.366,2.68h2.672l0.366-2.68h1.874l-1.016,7.438h-1.874
		l0.421-3.083h-2.673L68.64,26.026z"/>
	<path fill="#979797" d="M79.536,18.397c0.661,0,1.261,0.153,1.801,0.458s0.96,0.738,1.261,1.299s0.451,1.189,0.451,1.887
		c0,1.158-0.413,2.143-1.237,2.957s-1.846,1.22-3.062,1.22c-1.057,0-1.9-0.32-2.529-0.96s-0.943-1.478-0.943-2.512
		c0-1.249,0.426-2.286,1.278-3.11S78.401,18.397,79.536,18.397z M79.409,20.126c-0.746,0-1.318,0.268-1.716,0.803
		s-0.597,1.115-0.597,1.74c0,0.556,0.163,1.004,0.488,1.343c0.326,0.339,0.759,0.509,1.3,0.509c0.769,0,1.354-0.259,1.757-0.776
		s0.604-1.108,0.604-1.774c0-0.547-0.171-0.991-0.512-1.333C80.392,20.297,79.951,20.126,79.409,20.126z"/>
	<path fill="#979797" d="M85.135,26.026h-0.998l1.016-7.438h1.827l-0.571,4.331l4.143-4.331h0.971l-0.975,7.438h-1.858l0.582-4.259
		L85.135,26.026z M86.03,15.314h1.511c0.078,0.182,0.194,0.312,0.35,0.39c0.229,0.114,0.512,0.171,0.85,0.171
		c0.311,0,0.579-0.047,0.805-0.14s0.408-0.233,0.545-0.42h1.511c-0.178,0.588-0.528,1.054-1.051,1.398s-1.188,0.516-1.995,0.516
		c-0.844,0-1.477-0.177-1.899-0.53C86.234,16.345,86.026,15.884,86.03,15.314z"/>
	<path fill="#979797" d="M97.905,28.747h-1.821l1.388-10.158h1.794l-0.108,0.807c0.393-0.376,0.76-0.637,1.101-0.781
		c0.341-0.145,0.724-0.217,1.148-0.217c0.98,0,1.757,0.362,2.33,1.087c0.574,0.725,0.86,1.565,0.86,2.522
		c0,0.734-0.184,1.433-0.553,2.099s-0.863,1.184-1.484,1.555c-0.621,0.372-1.268,0.557-1.941,0.557
		c-0.455,0-0.875-0.104-1.262-0.314s-0.703-0.514-0.948-0.915L97.905,28.747z M100.963,20.017c-0.438,0-0.823,0.102-1.155,0.305
		c-0.332,0.203-0.61,0.519-0.833,0.948c-0.224,0.429-0.335,0.868-0.335,1.315c0,0.586,0.168,1.058,0.505,1.415
		c0.336,0.357,0.78,0.536,1.331,0.536c0.641,0,1.185-0.239,1.632-0.718c0.447-0.479,0.67-1.096,0.67-1.853
		c0-0.583-0.169-1.054-0.508-1.412C101.932,20.196,101.496,20.017,100.963,20.017z"/>
	<path fill="#979797" d="M111.269,23.849l1.606,0.833c-0.36,0.474-0.837,0.848-1.432,1.123c-0.595,0.275-1.254,0.413-1.979,0.413
		c-1.135,0-2.029-0.319-2.683-0.957s-0.981-1.486-0.981-2.543c0-1.208,0.409-2.229,1.227-3.066s1.806-1.254,2.963-1.254
		c0.697,0,1.318,0.153,1.863,0.458s0.974,0.75,1.289,1.333s0.472,1.217,0.472,1.9c0,0.214-0.023,0.465-0.068,0.752h-5.934
		c0.018,0.517,0.188,0.929,0.509,1.235s0.765,0.46,1.33,0.46C110.134,24.536,110.74,24.307,111.269,23.849z M111.733,21.5
		c-0.137-0.456-0.365-0.801-0.684-1.036s-0.704-0.352-1.155-0.352c-0.447,0-0.85,0.121-1.21,0.362s-0.633,0.583-0.82,1.025H111.733z
		"/>
	<path fill="#979797" d="M115.675,18.588h1.867l-0.401,2.939l3.03-2.939h2.324l-3.724,3.555l3.033,3.883h-2.372l-2.083-2.7
		l-0.513,0.438l-0.311,2.263h-1.867L115.675,18.588z"/>
	<path fill="#979797" d="M129.397,26.026h-1.955l-1.193-4.548l-2.447,4.548h-1.952l4.182-7.438h1.203L129.397,26.026z"/>
	<path fill="#979797" d="M136.887,18.588h1.828l-1.037,7.438h-1.807l0.109-0.799c-0.397,0.369-0.768,0.626-1.112,0.771
		c-0.345,0.146-0.731,0.219-1.16,0.219c-0.986,0-1.77-0.362-2.351-1.087s-0.873-1.568-0.873-2.529c0-0.734,0.186-1.432,0.559-2.095
		c0.372-0.663,0.872-1.18,1.499-1.552c0.627-0.372,1.284-0.557,1.969-0.557c0.459,0,0.883,0.105,1.272,0.316
		c0.388,0.211,0.708,0.519,0.961,0.922L136.887,18.588z M134.146,24.59c0.45,0,0.842-0.1,1.176-0.3
		c0.335-0.2,0.616-0.514,0.843-0.941c0.227-0.428,0.341-0.865,0.341-1.311c0-0.589-0.171-1.063-0.513-1.421
		c-0.342-0.359-0.792-0.538-1.352-0.538c-0.651,0-1.204,0.239-1.658,0.718c-0.454,0.479-0.681,1.096-0.681,1.853
		c0,0.583,0.172,1.053,0.516,1.408C133.163,24.413,133.605,24.59,134.146,24.59z"/>
	<path fill="#979797" d="M144.707,23.278l2.91-4.689h1.227l0.856,7.438h-1.816l-0.409-4.369l-2.802,4.369h-0.766l-1.58-4.358
		l-1.584,4.358h-1.824l2.867-7.438h1.235L144.707,23.278z"/>
	<path fill="#979797" d="M153.804,18.588l-0.366,2.68h0.554c1.14,0,1.917,0.213,2.332,0.639c0.415,0.426,0.623,0.958,0.623,1.596
		c0,0.456-0.095,0.875-0.284,1.258s-0.419,0.663-0.691,0.841s-0.562,0.293-0.869,0.345c-0.308,0.052-0.825,0.079-1.55,0.079h-2.628
		l1.016-7.438H153.804z M152.984,24.59h0.569c0.548,0,0.925-0.085,1.13-0.256c0.206-0.171,0.309-0.425,0.309-0.762
		c0-0.524-0.329-0.786-0.987-0.786h-0.774L152.984,24.59z M159.07,18.588h1.867l-1.009,7.438h-1.874L159.07,18.588z"/>
</g>
</svg>
