<?xml version="1.0" encoding="utf-8"?>
<!-- Generator: Adobe Illustrator 17.0.0, SVG Export Plug-In . SVG Version: 6.00 Build 0)  -->
<!DOCTYPE svg PUBLIC "-//W3C//DTD SVG 1.1//EN" "http://www.w3.org/Graphics/SVG/1.1/DTD/svg11.dtd">
<svg version="1.1" id="Слой_1" xmlns="http://www.w3.org/2000/svg" xmlns:xlink="http://www.w3.org/1999/xlink" x="0px" y="0px"
	 width="132.282px" height="10.35px" viewBox="0 0 132.282 10.35" enable-background="new 0 0 132.282 10.35" xml:space="preserve">
<g>
	<path fill="#979797" d="M1.867,7.629H0l1.016-7.438h6.42L6.413,7.629H4.539l0.771-5.64H2.644L1.867,7.629z"/>
	<path fill="#979797" d="M9.851,10.35H8.03L9.417,0.191h1.794l-0.108,0.807c0.393-0.376,0.76-0.637,1.101-0.781
		C12.545,0.072,12.928,0,13.353,0c0.98,0,1.757,0.362,2.33,1.087c0.574,0.725,0.86,1.565,0.86,2.522
		c0,0.734-0.184,1.433-0.553,2.099s-0.863,1.184-1.484,1.555c-0.621,0.372-1.268,0.557-1.941,0.557
		c-0.455,0-0.875-0.104-1.262-0.314S10.6,6.992,10.354,6.591L9.851,10.35z M12.91,1.62c-0.438,0-0.823,0.102-1.155,0.305
		c-0.332,0.203-0.61,0.519-0.833,0.948c-0.224,0.429-0.335,0.868-0.335,1.315c0,0.586,0.168,1.058,0.505,1.415
		c0.336,0.357,0.78,0.536,1.331,0.536c0.641,0,1.185-0.239,1.632-0.718c0.447-0.479,0.67-1.096,0.67-1.853
		c0-0.583-0.169-1.054-0.508-1.412C13.878,1.799,13.442,1.62,12.91,1.62z"/>
	<path fill="#979797" d="M22.005,0c0.661,0,1.261,0.153,1.801,0.458s0.96,0.738,1.261,1.299s0.451,1.189,0.451,1.887
		c0,1.158-0.413,2.143-1.237,2.957s-1.846,1.22-3.062,1.22c-1.057,0-1.9-0.32-2.529-0.96s-0.943-1.478-0.943-2.512
		c0-1.249,0.426-2.286,1.278-3.11S20.87,0,22.005,0z M21.878,1.729c-0.746,0-1.318,0.268-1.716,0.803s-0.597,1.115-0.597,1.74
		c0,0.556,0.163,1.004,0.488,1.343c0.326,0.339,0.759,0.509,1.3,0.509c0.769,0,1.354-0.259,1.757-0.776s0.604-1.108,0.604-1.774
		c0-0.547-0.171-0.991-0.512-1.333C22.861,1.9,22.419,1.729,21.878,1.729z"/>
	<path fill="#979797" d="M32.177,5.452l1.606,0.833c-0.36,0.474-0.837,0.848-1.432,1.123c-0.595,0.275-1.254,0.413-1.979,0.413
		c-1.135,0-2.029-0.319-2.683-0.957s-0.981-1.486-0.981-2.543c0-1.208,0.409-2.229,1.227-3.066S29.741,0,30.898,0
		c0.697,0,1.318,0.153,1.863,0.458s0.974,0.75,1.289,1.333s0.472,1.217,0.472,1.9c0,0.214-0.023,0.465-0.068,0.752H28.52
		c0.018,0.517,0.188,0.929,0.509,1.235s0.765,0.46,1.33,0.46C31.042,6.139,31.648,5.91,32.177,5.452z M32.642,3.104
		c-0.137-0.456-0.365-0.801-0.684-1.036s-0.704-0.352-1.155-0.352c-0.447,0-0.85,0.121-1.21,0.362s-0.633,0.583-0.82,1.025H32.642z"
		/>
	<path fill="#979797" d="M36.583,0.191h1.867l-0.401,2.939l3.03-2.939h2.324L39.68,3.746l3.033,3.883h-2.372l-2.083-2.7
		l-0.513,0.438l-0.311,2.263h-1.867L36.583,0.191z"/>
	<path fill="#979797" d="M43.948,0.191h6.932l-0.239,1.777h-2.452l-0.787,5.66h-1.874l0.773-5.66h-2.599L43.948,0.191z"/>
	<path fill="#979797" d="M51.905,3.097h3.685l-0.212,1.661h-3.691L51.905,3.097z"/>
	<path fill="#979797" d="M62.088,4.881l2.91-4.689h1.227l0.856,7.438h-1.816L64.856,3.26l-2.802,4.369h-0.766l-1.58-4.358
		l-1.584,4.358h-1.824l2.867-7.438h1.235L62.088,4.881z"/>
	<path fill="#979797" d="M73.876,5.452l1.606,0.833c-0.36,0.474-0.837,0.848-1.432,1.123c-0.595,0.275-1.254,0.413-1.979,0.413
		c-1.135,0-2.029-0.319-2.683-0.957s-0.981-1.486-0.981-2.543c0-1.208,0.409-2.229,1.227-3.066S71.44,0,72.598,0
		c0.697,0,1.318,0.153,1.863,0.458s0.974,0.75,1.289,1.333s0.472,1.217,0.472,1.9c0,0.214-0.023,0.465-0.068,0.752h-5.934
		c0.018,0.517,0.188,0.929,0.509,1.235s0.765,0.46,1.33,0.46C72.741,6.139,73.347,5.91,73.876,5.452z M74.341,3.104
		c-0.137-0.456-0.365-0.801-0.684-1.036s-0.704-0.352-1.155-0.352c-0.447,0-0.85,0.121-1.21,0.362s-0.633,0.583-0.82,1.025H74.341z"
		/>
	<path fill="#979797" d="M79.133,7.629h-1.867l1.016-7.438h1.867l-0.366,2.68h2.672l0.366-2.68h1.874l-1.016,7.438h-1.874
		l0.421-3.083h-2.673L79.133,7.629z"/>
	<path fill="#979797" d="M91.239,5.452l1.606,0.833c-0.36,0.474-0.837,0.848-1.432,1.123c-0.595,0.275-1.254,0.413-1.979,0.413
		c-1.135,0-2.029-0.319-2.683-0.957s-0.981-1.486-0.981-2.543c0-1.208,0.409-2.229,1.227-3.066S88.803,0,89.961,0
		c0.697,0,1.318,0.153,1.863,0.458s0.974,0.75,1.289,1.333s0.472,1.217,0.472,1.9c0,0.214-0.023,0.465-0.068,0.752h-5.934
		C87.6,4.96,87.77,5.372,88.091,5.679s0.765,0.46,1.33,0.46C90.104,6.139,90.71,5.91,91.239,5.452z M91.704,3.104
		c-0.137-0.456-0.365-0.801-0.684-1.036s-0.704-0.352-1.155-0.352c-0.447,0-0.85,0.121-1.21,0.362s-0.633,0.583-0.82,1.025H91.704z"
		/>
	<path fill="#979797" d="M95.518,7.629l-0.209,1.292h-1.745l0.39-2.878h1.121l3.357-5.852h1.205l1.802,5.852h1.134l-0.389,2.878
		h-1.784l0.178-1.292H95.518z M99.49,6.043l-0.721-3.514h-0.116l-1.67,3.514H99.49z"/>
	<path fill="#979797" d="M107.834,5.086l-0.28-0.369l-2.706,2.912h-2.516l4.244-4.088l-2.692-3.35h2.085l2.135,2.878l0.394-2.878
		h1.867l-0.394,2.878l2.9-2.878h2.29l-3.771,3.479l2.964,3.958h-2.297l-1.918-2.96l-0.438,0.417l-0.353,2.543h-1.867L107.834,5.086z
		"/>
	<path fill="#979797" d="M120.75,5.452l1.606,0.833c-0.36,0.474-0.837,0.848-1.432,1.123c-0.595,0.275-1.254,0.413-1.979,0.413
		c-1.135,0-2.029-0.319-2.683-0.957s-0.981-1.486-0.981-2.543c0-1.208,0.409-2.229,1.227-3.066S118.314,0,119.472,0
		c0.697,0,1.318,0.153,1.863,0.458s0.974,0.75,1.289,1.333s0.472,1.217,0.472,1.9c0,0.214-0.023,0.465-0.068,0.752h-5.934
		c0.018,0.517,0.188,0.929,0.509,1.235s0.765,0.46,1.33,0.46C119.615,6.139,120.221,5.91,120.75,5.452z M121.215,3.104
		c-0.137-0.456-0.365-0.801-0.684-1.036s-0.704-0.352-1.155-0.352c-0.447,0-0.85,0.121-1.21,0.362s-0.633,0.583-0.82,1.025H121.215z
		"/>
	<path fill="#979797" d="M125.59,10.35h-1.821l1.388-10.158h1.794l-0.108,0.807c0.393-0.376,0.76-0.637,1.101-0.781
		C128.285,0.072,128.667,0,129.092,0c0.98,0,1.757,0.362,2.33,1.087c0.574,0.725,0.86,1.565,0.86,2.522
		c0,0.734-0.184,1.433-0.553,2.099s-0.863,1.184-1.484,1.555c-0.621,0.372-1.268,0.557-1.941,0.557
		c-0.455,0-0.875-0.104-1.262-0.314s-0.703-0.514-0.948-0.915L125.59,10.35z M128.649,1.62c-0.438,0-0.823,0.102-1.155,0.305
		c-0.332,0.203-0.61,0.519-0.833,0.948c-0.224,0.429-0.335,0.868-0.335,1.315c0,0.586,0.168,1.058,0.505,1.415
		c0.336,0.357,0.78,0.536,1.331,0.536c0.641,0,1.185-0.239,1.632-0.718c0.447-0.479,0.67-1.096,0.67-1.853
		c0-0.583-0.169-1.054-0.508-1.412C129.617,1.799,129.182,1.62,128.649,1.62z"/>
</g>
</svg>
