<?xml version="1.0" encoding="utf-8"?>
<!-- Generator: Adobe Illustrator 17.0.0, SVG Export Plug-In . SVG Version: 6.00 Build 0)  -->
<!DOCTYPE svg PUBLIC "-//W3C//DTD SVG 1.1//EN" "http://www.w3.org/Graphics/SVG/1.1/DTD/svg11.dtd">
<svg version="1.1" id="Слой_1" xmlns="http://www.w3.org/2000/svg" xmlns:xlink="http://www.w3.org/1999/xlink" x="0px" y="0px"
	 width="197.333px" height="10.35px" viewBox="0 0 197.333 10.35" enable-background="new 0 0 197.333 10.35" xml:space="preserve">
<g>
	<path fill="#979797" d="M7.701,1.729l-1.544,0.84C5.719,2.014,5.132,1.736,4.394,1.736c-0.497,0-0.936,0.106-1.319,0.317
		C2.693,2.265,2.388,2.571,2.16,2.972c-0.228,0.4-0.342,0.824-0.342,1.27c0,0.573,0.18,1.033,0.54,1.379
		c0.36,0.346,0.854,0.519,1.483,0.519c0.87,0,1.537-0.293,2.001-0.88l1.435,1.014C6.871,6.756,6.366,7.135,5.762,7.409
		S4.484,7.82,3.741,7.82c-1.158,0-2.071-0.319-2.739-0.957S0,5.382,0,4.334c0-1.199,0.413-2.221,1.238-3.066S3.125,0,4.425,0
		C5.888,0,6.98,0.576,7.701,1.729z"/>
	<path fill="#979797" d="M10.726,7.629H8.859l1.016-7.438h6.42l-1.023,7.438h-1.874l0.771-5.64h-2.666L10.726,7.629z"/>
	<path fill="#979797" d="M22.832,5.452l1.606,0.833c-0.36,0.474-0.837,0.848-1.432,1.123c-0.595,0.275-1.254,0.413-1.979,0.413
		c-1.135,0-2.029-0.319-2.683-0.957s-0.981-1.486-0.981-2.543c0-1.208,0.409-2.229,1.227-3.066S20.396,0,21.554,0
		c0.697,0,1.318,0.153,1.863,0.458s0.974,0.75,1.289,1.333s0.472,1.217,0.472,1.9c0,0.214-0.023,0.465-0.068,0.752h-5.934
		c0.018,0.517,0.188,0.929,0.509,1.235s0.765,0.46,1.33,0.46C21.697,6.139,22.303,5.91,22.832,5.452z M23.297,3.104
		c-0.137-0.456-0.365-0.801-0.684-1.036s-0.704-0.352-1.155-0.352c-0.447,0-0.85,0.121-1.21,0.362s-0.633,0.583-0.82,1.025H23.297z"
		/>
	<path fill="#979797" d="M32.874,5.838h1.766l-0.412,3.097H32.45l0.171-1.306h-6.398l1.016-7.438h1.876l-0.777,5.64H31l0.771-5.64
		h1.867L32.874,5.838z"/>
	<path fill="#979797" d="M36.278,7.629H35.28l1.016-7.438h1.827l-0.571,4.331l4.143-4.331h0.971l-0.975,7.438h-1.858l0.582-4.259
		L36.278,7.629z"/>
	<path fill="#979797" d="M50.16,0.191h1.828L50.95,7.629h-1.807l0.109-0.799c-0.397,0.369-0.768,0.626-1.112,0.771
		c-0.345,0.146-0.731,0.219-1.16,0.219c-0.986,0-1.77-0.362-2.351-1.087s-0.873-1.568-0.873-2.529c0-0.734,0.186-1.432,0.559-2.095
		c0.372-0.663,0.872-1.18,1.499-1.552C46.442,0.186,47.098,0,47.783,0c0.459,0,0.883,0.105,1.272,0.316
		c0.388,0.211,0.708,0.519,0.961,0.922L50.16,0.191z M47.418,6.193c0.45,0,0.842-0.1,1.176-0.3c0.335-0.2,0.616-0.514,0.843-0.941
		c0.227-0.428,0.341-0.865,0.341-1.311c0-0.589-0.171-1.063-0.513-1.421c-0.342-0.359-0.792-0.538-1.352-0.538
		c-0.651,0-1.204,0.239-1.658,0.718c-0.454,0.479-0.681,1.096-0.681,1.853c0,0.583,0.172,1.053,0.516,1.408
		C46.435,6.016,46.877,6.193,47.418,6.193z"/>
	<path fill="#979797" d="M59.582,7.629h-1.955l-1.193-4.548l-2.447,4.548h-1.952l4.182-7.438h1.203L59.582,7.629z"/>
	<path fill="#979797" d="M61.592,7.629h-0.998l1.016-7.438h1.827l-0.571,4.331l4.143-4.331h0.971l-0.975,7.438h-1.858l0.582-4.259
		L61.592,7.629z"/>
	<path fill="#979797" d="M76.798,1.729l-1.544,0.84c-0.438-0.555-1.025-0.833-1.763-0.833c-0.497,0-0.936,0.106-1.319,0.317
		c-0.382,0.211-0.688,0.518-0.915,0.918c-0.228,0.4-0.342,0.824-0.342,1.27c0,0.573,0.18,1.033,0.54,1.379
		c0.36,0.346,0.854,0.519,1.483,0.519c0.87,0,1.537-0.293,2.001-0.88l1.435,1.014c-0.406,0.484-0.911,0.863-1.515,1.137
		S73.582,7.82,72.839,7.82c-1.158,0-2.071-0.319-2.739-0.957s-1.002-1.481-1.002-2.529c0-1.199,0.413-2.221,1.238-3.066
		S72.223,0,73.522,0C74.986,0,76.078,0.576,76.798,1.729z"/>
	<path fill="#979797" d="M78.258,0.191h6.932L84.95,1.969h-2.452l-0.787,5.66h-1.874l0.773-5.66h-2.599L78.258,0.191z"/>
	<path fill="#979797" d="M91.247,7.629H89.38l1.016-7.438h6.42l-1.023,7.438h-1.874l0.771-5.64h-2.666L91.247,7.629z"/>
	<path fill="#979797" d="M102.143,0c0.661,0,1.261,0.153,1.801,0.458s0.96,0.738,1.261,1.299s0.451,1.189,0.451,1.887
		c0,1.158-0.413,2.143-1.237,2.957s-1.846,1.22-3.062,1.22c-1.057,0-1.9-0.32-2.529-0.96s-0.943-1.478-0.943-2.512
		c0-1.249,0.426-2.286,1.278-3.11S101.008,0,102.143,0z M102.016,1.729c-0.746,0-1.318,0.268-1.716,0.803s-0.597,1.115-0.597,1.74
		c0,0.556,0.163,1.004,0.488,1.343c0.326,0.339,0.759,0.509,1.3,0.509c0.769,0,1.354-0.259,1.757-0.776s0.604-1.108,0.604-1.774
		c0-0.547-0.171-0.991-0.512-1.333C102.999,1.9,102.557,1.729,102.016,1.729z"/>
	<path fill="#979797" d="M112.527,7.629h-1.867l1.016-7.438h6.42l-1.023,7.438h-1.874l0.771-5.64h-2.666L112.527,7.629z"/>
	<path fill="#979797" d="M120.511,10.35h-1.821l1.388-10.158h1.794l-0.108,0.807c0.393-0.376,0.76-0.637,1.101-0.781
		C123.206,0.072,123.588,0,124.013,0c0.98,0,1.757,0.362,2.33,1.087c0.574,0.725,0.86,1.565,0.86,2.522
		c0,0.734-0.184,1.433-0.553,2.099s-0.863,1.184-1.484,1.555c-0.621,0.372-1.268,0.557-1.941,0.557
		c-0.455,0-0.875-0.104-1.262-0.314s-0.703-0.514-0.948-0.915L120.511,10.35z M123.57,1.62c-0.438,0-0.823,0.102-1.155,0.305
		c-0.332,0.203-0.61,0.519-0.833,0.948c-0.224,0.429-0.335,0.868-0.335,1.315c0,0.586,0.168,1.058,0.505,1.415
		c0.336,0.357,0.78,0.536,1.331,0.536c0.641,0,1.185-0.239,1.632-0.718c0.447-0.479,0.67-1.096,0.67-1.853
		c0-0.583-0.169-1.054-0.508-1.412C124.538,1.799,124.103,1.62,123.57,1.62z"/>
	<path fill="#979797" d="M132.665,0c0.661,0,1.261,0.153,1.801,0.458s0.96,0.738,1.261,1.299s0.451,1.189,0.451,1.887
		c0,1.158-0.413,2.143-1.237,2.957s-1.846,1.22-3.062,1.22c-1.057,0-1.9-0.32-2.529-0.96s-0.943-1.478-0.943-2.512
		c0-1.249,0.426-2.286,1.278-3.11S131.53,0,132.665,0z M132.538,1.729c-0.746,0-1.318,0.268-1.716,0.803s-0.597,1.115-0.597,1.74
		c0,0.556,0.163,1.004,0.488,1.343c0.326,0.339,0.759,0.509,1.3,0.509c0.769,0,1.354-0.259,1.757-0.776s0.604-1.108,0.604-1.774
		c0-0.547-0.171-0.991-0.512-1.333C133.521,1.9,133.08,1.729,132.538,1.729z"/>
	<path fill="#979797" d="M137.566,0.191h6.932l-0.239,1.777h-2.452l-0.787,5.66h-1.874l0.773-5.66h-2.599L137.566,0.191z"/>
	<path fill="#979797" d="M149.133,0c0.661,0,1.261,0.153,1.801,0.458s0.96,0.738,1.261,1.299s0.451,1.189,0.451,1.887
		c0,1.158-0.413,2.143-1.237,2.957s-1.846,1.22-3.062,1.22c-1.057,0-1.9-0.32-2.529-0.96s-0.943-1.478-0.943-2.512
		c0-1.249,0.426-2.286,1.278-3.11S147.998,0,149.133,0z M149.006,1.729c-0.746,0-1.318,0.268-1.716,0.803s-0.597,1.115-0.597,1.74
		c0,0.556,0.163,1.004,0.488,1.343c0.326,0.339,0.759,0.509,1.3,0.509c0.769,0,1.354-0.259,1.757-0.776s0.604-1.108,0.604-1.774
		c0-0.547-0.171-0.991-0.512-1.333C149.989,1.9,149.547,1.729,149.006,1.729z"/>
	<path fill="#979797" d="M154.034,0.191h6.932l-0.239,1.777h-2.452l-0.787,5.66h-1.874l0.773-5.66h-2.599L154.034,0.191z"/>
	<path fill="#979797" d="M162.237,7.629h-0.998l1.016-7.438h1.827l-0.571,4.331l4.143-4.331h0.971l-0.975,7.438h-1.858l0.582-4.259
		L162.237,7.629z"/>
	<path fill="#979797" d="M171.507,7.629h-1.867l1.016-7.438h6.42l-1.023,7.438h-1.874l0.771-5.64h-2.666L171.507,7.629z"/>
	<path fill="#979797" d="M184.52,0.191h1.828l-1.037,7.438h-1.807l0.109-0.799c-0.397,0.369-0.768,0.626-1.112,0.771
		c-0.345,0.146-0.731,0.219-1.16,0.219c-0.986,0-1.77-0.362-2.351-1.087s-0.873-1.568-0.873-2.529c0-0.734,0.186-1.432,0.559-2.095
		c0.372-0.663,0.872-1.18,1.499-1.552C180.802,0.186,181.458,0,182.144,0c0.459,0,0.883,0.105,1.272,0.316
		c0.388,0.211,0.708,0.519,0.961,0.922L184.52,0.191z M181.779,6.193c0.45,0,0.842-0.1,1.176-0.3c0.335-0.2,0.616-0.514,0.843-0.941
		c0.227-0.428,0.341-0.865,0.341-1.311c0-0.589-0.171-1.063-0.513-1.421c-0.342-0.359-0.792-0.538-1.352-0.538
		c-0.651,0-1.204,0.239-1.658,0.718c-0.454,0.479-0.681,1.096-0.681,1.853c0,0.583,0.172,1.053,0.516,1.408
		C180.795,6.016,181.238,6.193,181.779,6.193z"/>
	<path fill="#979797" d="M192.34,4.881l2.91-4.689h1.227l0.856,7.438h-1.816l-0.409-4.369l-2.802,4.369h-0.766l-1.58-4.358
		l-1.584,4.358h-1.824l2.867-7.438h1.235L192.34,4.881z"/>
</g>
</svg>
