<?xml version="1.0" encoding="utf-8"?>
<!-- Generator: Adobe Illustrator 17.0.0, SVG Export Plug-In . SVG Version: 6.00 Build 0)  -->
<!DOCTYPE svg PUBLIC "-//W3C//DTD SVG 1.1//EN" "http://www.w3.org/Graphics/SVG/1.1/DTD/svg11.dtd">
<svg version="1.1" id="Слой_1" xmlns="http://www.w3.org/2000/svg" xmlns:xlink="http://www.w3.org/1999/xlink" x="0px" y="0px"
	 width="163.707px" height="13.433px" viewBox="0 0 163.707 13.433" enable-background="new 0 0 163.707 13.433"
	 xml:space="preserve">
<g>
	<path fill="#979797" d="M0.246,3.274h6.932L6.938,5.052H4.486l-0.787,5.66H1.825l0.773-5.66H0L0.246,3.274z"/>
	<path fill="#979797" d="M13.022,8.535l1.606,0.833c-0.36,0.474-0.837,0.848-1.432,1.123c-0.595,0.275-1.254,0.413-1.979,0.413
		c-1.135,0-2.029-0.319-2.683-0.957S7.554,8.46,7.554,7.403c0-1.208,0.409-2.229,1.227-3.066s1.806-1.254,2.963-1.254
		c0.697,0,1.318,0.153,1.863,0.458s0.974,0.75,1.289,1.333s0.472,1.217,0.472,1.9c0,0.214-0.023,0.465-0.068,0.752H9.365
		c0.018,0.517,0.188,0.929,0.509,1.235s0.765,0.46,1.33,0.46C11.888,9.222,12.494,8.993,13.022,8.535z M13.487,6.187
		c-0.137-0.456-0.365-0.801-0.684-1.036S12.1,4.799,11.648,4.799c-0.447,0-0.85,0.121-1.21,0.362s-0.633,0.583-0.82,1.025H13.487z"
		/>
	<path fill="#979797" d="M16.509,3.274h2.01l1.293,2.109l1.551-2.109h2.126l-2.71,3.686l2.3,3.752h-2.01l-1.386-2.261l-1.663,2.261
		h-2.126l2.822-3.838L16.509,3.274z"/>
	<path fill="#979797" d="M26.121,10.712h-1.867l1.016-7.438h1.867l-0.366,2.68h2.672l0.366-2.68h1.874l-1.016,7.438h-1.874
		l0.421-3.083h-2.673L26.121,10.712z"/>
	<path fill="#979797" d="M33.653,10.712h-0.998l1.016-7.438h1.827l-0.571,4.331l4.143-4.331h0.971l-0.975,7.438h-1.858l0.582-4.259
		L33.653,10.712z"/>
	<path fill="#979797" d="M45.384,7.759h-1.292c-0.739,0-1.324-0.093-1.754-0.28s-0.722-0.419-0.872-0.697s-0.226-0.622-0.226-1.032
		c0-0.15,0.011-0.317,0.034-0.499l0.273-1.976h1.874l-0.198,1.463c-0.032,0.228-0.048,0.415-0.048,0.561
		c0,0.237,0.051,0.411,0.154,0.523c0.103,0.112,0.26,0.182,0.473,0.212s0.636,0.044,1.271,0.044h0.542l0.383-2.803h1.867
		l-1.016,7.438H44.98L45.384,7.759z"/>
	<path fill="#979797" d="M54.414,8.535l1.606,0.833c-0.36,0.474-0.837,0.848-1.432,1.123c-0.595,0.275-1.254,0.413-1.979,0.413
		c-1.135,0-2.029-0.319-2.683-0.957s-0.981-1.486-0.981-2.543c0-1.208,0.409-2.229,1.227-3.066s1.806-1.254,2.963-1.254
		c0.697,0,1.318,0.153,1.863,0.458s0.974,0.75,1.289,1.333s0.472,1.217,0.472,1.9c0,0.214-0.023,0.465-0.068,0.752h-5.934
		c0.018,0.517,0.188,0.929,0.509,1.235s0.765,0.46,1.33,0.46C53.279,9.222,53.885,8.993,54.414,8.535z M54.879,6.187
		c-0.137-0.456-0.365-0.801-0.684-1.036s-0.704-0.352-1.155-0.352c-0.447,0-0.85,0.121-1.21,0.362s-0.633,0.583-0.82,1.025H54.879z"
		/>
	<path fill="#979797" d="M65.608,4.812l-1.544,0.84c-0.438-0.555-1.025-0.833-1.763-0.833c-0.497,0-0.936,0.106-1.319,0.317
		c-0.382,0.211-0.688,0.518-0.915,0.918c-0.228,0.4-0.342,0.824-0.342,1.27c0,0.573,0.18,1.033,0.54,1.379
		c0.36,0.346,0.854,0.519,1.483,0.519c0.87,0,1.537-0.293,2.001-0.88l1.435,1.014c-0.406,0.484-0.911,0.863-1.515,1.137
		s-1.278,0.411-2.021,0.411c-1.158,0-2.071-0.319-2.739-0.957s-1.002-1.481-1.002-2.529c0-1.199,0.413-2.221,1.238-3.066
		s1.888-1.268,3.187-1.268C63.795,3.083,64.888,3.659,65.608,4.812z"/>
	<path fill="#979797" d="M67.783,3.274h1.867l-0.401,2.939l3.03-2.939h2.324l-3.724,3.555l3.033,3.883H71.54l-2.083-2.7
		l-0.513,0.438l-0.311,2.263h-1.867L67.783,3.274z"/>
	<path fill="#979797" d="M75.845,10.712h-0.998l1.016-7.438h1.827l-0.571,4.331l4.143-4.331h0.971l-0.975,7.438h-1.858l0.582-4.259
		L75.845,10.712z"/>
	<path fill="#979797" d="M84.246,10.712h-0.998l1.016-7.438h1.827L85.52,7.605l4.143-4.331h0.971l-0.975,7.438h-1.858l0.582-4.259
		L84.246,10.712z M85.142,0h1.511c0.078,0.182,0.194,0.312,0.35,0.39c0.229,0.114,0.512,0.171,0.85,0.171
		c0.311,0,0.579-0.047,0.805-0.14S89.065,0.187,89.202,0h1.511c-0.178,0.588-0.528,1.054-1.051,1.398s-1.188,0.516-1.995,0.516
		c-0.844,0-1.477-0.177-1.899-0.53C85.346,1.031,85.137,0.57,85.142,0z"/>
	<path fill="#979797" d="M96.455,10.712l-0.209,1.292H94.5l0.39-2.878h1.121l3.357-5.852h1.205l1.802,5.852h1.134l-0.389,2.878
		h-1.784l0.178-1.292H96.455z M100.427,9.126l-0.721-3.514h-0.116l-1.67,3.514H100.427z"/>
	<path fill="#979797" d="M105.41,10.712h-0.998l1.016-7.438h1.827l-0.571,4.331l4.143-4.331h0.971l-0.975,7.438h-1.858l0.582-4.259
		L105.41,10.712z"/>
	<path fill="#979797" d="M114.263,13.433h-1.821l1.388-10.158h1.794l-0.108,0.807c0.393-0.376,0.76-0.637,1.101-0.781
		c0.341-0.145,0.724-0.217,1.148-0.217c0.98,0,1.757,0.362,2.33,1.087c0.574,0.725,0.86,1.565,0.86,2.522
		c0,0.734-0.184,1.433-0.553,2.099s-0.863,1.184-1.484,1.555c-0.621,0.372-1.268,0.557-1.941,0.557
		c-0.455,0-0.875-0.104-1.262-0.314s-0.703-0.514-0.948-0.915L114.263,13.433z M117.322,4.703c-0.438,0-0.823,0.102-1.155,0.305
		c-0.332,0.203-0.61,0.519-0.833,0.948c-0.224,0.429-0.335,0.868-0.335,1.315c0,0.586,0.168,1.058,0.505,1.415
		c0.336,0.357,0.78,0.536,1.331,0.536c0.641,0,1.185-0.239,1.632-0.718c0.447-0.479,0.67-1.096,0.67-1.853
		c0-0.583-0.169-1.054-0.508-1.412C118.29,4.882,117.854,4.703,117.322,4.703z"/>
	<path fill="#979797" d="M127.627,8.535l1.606,0.833c-0.36,0.474-0.837,0.848-1.432,1.123c-0.595,0.275-1.254,0.413-1.979,0.413
		c-1.135,0-2.029-0.319-2.683-0.957s-0.981-1.486-0.981-2.543c0-1.208,0.409-2.229,1.227-3.066s1.806-1.254,2.963-1.254
		c0.697,0,1.318,0.153,1.863,0.458s0.974,0.75,1.289,1.333s0.472,1.217,0.472,1.9c0,0.214-0.023,0.465-0.068,0.752h-5.934
		c0.018,0.517,0.188,0.929,0.509,1.235s0.765,0.46,1.33,0.46C126.492,9.222,127.098,8.993,127.627,8.535z M128.092,6.187
		c-0.137-0.456-0.365-0.801-0.684-1.036s-0.704-0.352-1.155-0.352c-0.447,0-0.85,0.121-1.21,0.362s-0.633,0.583-0.82,1.025H128.092z
		"/>
	<path fill="#979797" d="M132.034,3.274h1.867L133.5,6.214l3.03-2.939h2.324l-3.724,3.555l3.033,3.883h-2.372l-2.083-2.7
		l-0.513,0.438l-0.311,2.263h-1.867L132.034,3.274z"/>
	<path fill="#979797" d="M139.398,3.274h6.932l-0.239,1.777h-2.452l-0.787,5.66h-1.874l0.773-5.66h-2.599L139.398,3.274z"/>
	<path fill="#979797" d="M150.965,3.083c0.661,0,1.261,0.153,1.801,0.458s0.96,0.738,1.261,1.299s0.451,1.189,0.451,1.887
		c0,1.158-0.413,2.143-1.237,2.957s-1.846,1.22-3.062,1.22c-1.057,0-1.9-0.32-2.529-0.96s-0.943-1.478-0.943-2.512
		c0-1.249,0.426-2.286,1.278-3.11S149.83,3.083,150.965,3.083z M150.838,4.812c-0.746,0-1.318,0.268-1.716,0.803
		s-0.597,1.115-0.597,1.74c0,0.556,0.163,1.004,0.488,1.343c0.326,0.339,0.759,0.509,1.3,0.509c0.769,0,1.354-0.259,1.757-0.776
		s0.604-1.108,0.604-1.774c0-0.547-0.171-0.991-0.512-1.333C151.821,4.983,151.379,4.812,150.838,4.812z"/>
	<path fill="#979797" d="M157.015,13.433h-1.821l1.388-10.158h1.794l-0.108,0.807c0.393-0.376,0.76-0.637,1.101-0.781
		c0.341-0.145,0.724-0.217,1.148-0.217c0.98,0,1.757,0.362,2.33,1.087c0.574,0.725,0.86,1.565,0.86,2.522
		c0,0.734-0.184,1.433-0.553,2.099s-0.863,1.184-1.484,1.555c-0.621,0.372-1.268,0.557-1.941,0.557
		c-0.455,0-0.875-0.104-1.262-0.314s-0.703-0.514-0.948-0.915L157.015,13.433z M160.074,4.703c-0.438,0-0.823,0.102-1.155,0.305
		c-0.332,0.203-0.61,0.519-0.833,0.948c-0.224,0.429-0.335,0.868-0.335,1.315c0,0.586,0.168,1.058,0.505,1.415
		c0.336,0.357,0.78,0.536,1.331,0.536c0.641,0,1.185-0.239,1.632-0.718c0.447-0.479,0.67-1.096,0.67-1.853
		c0-0.583-0.169-1.054-0.508-1.412C161.042,4.882,160.606,4.703,160.074,4.703z"/>
</g>
</svg>
