<?xml version="1.0" encoding="utf-8"?>
<!-- Generator: Adobe Illustrator 17.0.0, SVG Export Plug-In . SVG Version: 6.00 Build 0)  -->
<!DOCTYPE svg PUBLIC "-//W3C//DTD SVG 1.1//EN" "http://www.w3.org/Graphics/SVG/1.1/DTD/svg11.dtd">
<svg version="1.1" id="Layer_1" xmlns="http://www.w3.org/2000/svg" xmlns:xlink="http://www.w3.org/1999/xlink" x="0px" y="0px"
	 width="7.677px" height="7.676px" viewBox="0 0 7.677 7.676" enable-background="new 0 0 7.677 7.676" xml:space="preserve">
<path fill-rule="evenodd" clip-rule="evenodd" fill="#101010" d="M1.183,0h5.311c0.653,0,1.184,0.529,1.184,1.183v5.311
	c0,0.653-0.53,1.183-1.184,1.183H1.183C0.53,7.676,0,7.147,0,6.494V1.183C0,0.529,0.53,0,1.183,0L1.183,0L1.183,0z M3.774,5.374
	h0.314c0,0,0.095-0.01,0.144-0.062c0.044-0.048,0.043-0.138,0.043-0.138S4.268,4.752,4.464,4.69
	c0.192-0.061,0.439,0.407,0.702,0.587c0.198,0.137,0.35,0.106,0.35,0.106l0.701-0.01c0,0,0.367-0.023,0.193-0.311
	C6.396,5.039,6.309,4.849,5.889,4.459C5.449,4.051,5.508,4.117,6.038,3.411C6.361,2.98,6.49,2.718,6.449,2.605
	C6.411,2.498,6.173,2.526,6.173,2.526l-0.79,0.005c0,0-0.059-0.008-0.102,0.018c-0.043,0.025-0.07,0.085-0.07,0.085
	S5.086,2.967,4.92,3.25C4.568,3.847,4.427,3.879,4.37,3.842c-0.134-0.086-0.1-0.347-0.1-0.533c0-0.579,0.087-0.82-0.171-0.882
	C4.013,2.406,3.95,2.392,3.73,2.39C3.448,2.387,3.21,2.391,3.075,2.457c-0.09,0.044-0.159,0.142-0.117,0.147
	C3.01,2.611,3.128,2.637,3.19,2.722c0.081,0.11,0.078,0.357,0.078,0.357S3.315,3.761,3.16,3.845
	C3.054,3.903,2.908,3.785,2.594,3.243C2.433,2.965,2.312,2.659,2.312,2.659S2.289,2.601,2.247,2.57
	C2.196,2.533,2.125,2.522,2.125,2.522l-0.75,0.005c0,0-0.113,0.003-0.154,0.052C1.184,2.622,1.218,2.712,1.218,2.712
	S1.806,4.087,2.471,4.78C3.081,5.416,3.774,5.374,3.774,5.374L3.774,5.374z"/>
</svg>
