<?xml version="1.0" encoding="utf-8"?>
<!-- Generator: Adobe Illustrator 17.0.0, SVG Export Plug-In . SVG Version: 6.00 Build 0)  -->
<!DOCTYPE svg PUBLIC "-//W3C//DTD SVG 1.1//EN" "http://www.w3.org/Graphics/SVG/1.1/DTD/svg11.dtd">
<svg version="1.1" id="Слой_1" xmlns="http://www.w3.org/2000/svg" xmlns:xlink="http://www.w3.org/1999/xlink" x="0px" y="0px"
	 width="356.702px" height="339px" viewBox="0 0 356.702 339" enable-background="new 0 0 356.702 339" xml:space="preserve">
<g>
	<line fill="#505050" x1="178.321" y1="166" x2="178.321" y2="0"/>
	<path fill="#505050" d="M178.321,166.401l130.912,0.07c0,0,31.755-100.167,45.242-138.085C361.338,9.09,351.321,0,338.321,0
		c-37.408,0-160,0-160,0V166.401z"/>
	<line fill="#505050" x1="178.321" y1="0" x2="178.321" y2="166"/>
	<path fill="#505050" d="M178.321,0c0,0-121.806,0-159.214,0c-13,0-23.628,8.956-17.153,28.387
		c12.986,38.97,45.349,138.085,45.349,138.085l131.019-0.07V0z"/>
</g>
<g>
	<path fill="#A6A6A6" d="M116.321,338.5"/>
	<path fill="#A6A6A6" d="M192.321,339c0,0-34.125,0-66.5,0c-16.5,0-23.5-9-27.599-21.297C87.746,286.278,56.321,192,56.321,192h245
		L192.321,339z"/>
	<path fill="#A6A6A6" d="M170.321,339c0,0,29.125,0,61.5,0c16.5,0,23.5-9,27.599-21.297C269.895,286.278,301.321,192,301.321,192
		h-245L170.321,339z"/>
</g>
</svg>
