<?xml version="1.0" encoding="utf-8"?>
<!-- Generator: Adobe Illustrator 17.0.0, SVG Export Plug-In . SVG Version: 6.00 Build 0)  -->
<!DOCTYPE svg PUBLIC "-//W3C//DTD SVG 1.1//EN" "http://www.w3.org/Graphics/SVG/1.1/DTD/svg11.dtd">
<svg version="1.1" id="Слой_1" xmlns="http://www.w3.org/2000/svg" xmlns:xlink="http://www.w3.org/1999/xlink" x="0px" y="0px"
	 width="7.677px" height="7.677px" viewBox="0 0 7.677 7.677" enable-background="new 0 0 7.677 7.677" xml:space="preserve">
<path fill-rule="evenodd" clip-rule="evenodd" fill="#2CDE97" d="M1.183,0h5.311c0.653,0,1.184,0.53,1.184,1.183v5.311
	c0,0.653-0.53,1.183-1.184,1.183H1.183C0.53,7.677,0,7.147,0,6.494V1.183C0,0.53,0.53,0,1.183,0L1.183,0L1.183,0z M4.363,7.12h1.064
	V4.323h1.045L6.52,3.316H5.427V2.581c0-0.278,0.059-0.445,0.421-0.445c0.336,0,0.643,0.003,0.643,0.003l0.024-0.941
	c0,0-0.302-0.039-0.709-0.039c-1.007,0-1.443,0.621-1.443,1.297v0.86h-0.74v1.007h0.74V7.12z"/>
</svg>
